<?xml version="1.0" encoding="UTF-8"?>
<svg version="1.1" viewBox="0 0 2048 2048" width="1280" height="1280" xmlns="http://www.w3.org/2000/svg">
<path transform="translate(120)" d="m0 0h1804l-1 17-66 740-59 662-37 415-1 6-19 6-72 20-81 23-72 20-81 23-72 20-81 23-246 69-14 4-7-1-71-20-644-182-16-5-3-28-65-729-96-1077z" fill="#E14F25"/>
<path transform="translate(456,376)" d="m0 0h1132l-2 36-3 38-11 107-3 36-1 7h-864l3 31 17 197v4h824l-3 26-5 39-51 584-4 41-1 6-24 7-94 26-261 72-80 22-1 1-9-1-435-120-24-7-3-34-25-317v-5h224l3 30 13 146 1 4 75 20 174 47 8-1 178-48 67-18 3-25 25-261 1-6h-784l-3-29-53-591-4-59z" fill="#FEFEFE"/>
<path transform="translate(1024,148)" d="m0 0h736l-2 27-26 293-31 350-29 326-36 405-15 169-1 6-16 5-360 99-218 60h-2v-233l9-3 72-20 377-104h2l1-16 9-99 45-516 8-62 1-3h-824l-2-16-18-209v-7h864l1-19 5-54 9-87 4-58 1-6h-564z" fill="#EE642A"/>
<path transform="translate(456,376)" d="m0 0h1132l-2 36-3 38-11 107-3 36-1 7h-864l3 31 17 197v4h296v228h-504l-3-29-53-591-4-59z" fill="#E9E9E9"/>
<path transform="translate(528,1172)" d="m0 0h224l3 30 13 146 1 4 75 20 174 47 2 1v236l-34-9-428-118-2-1-3-34-25-317z" fill="#E9E9E9"/>
<path transform="translate(1020,376)" d="m0 0h568l-2 36-3 38-11 107-3 36-1 7h-548z" fill="#FEFEFE"/>
<path transform="translate(1024,1060)" d="m0 0h276l-1 16-26 271-2 6-245 66h-2z" fill="#EE642A"/>
<path transform="translate(704,600)" d="m0 0h320v232h-300l-2-16-18-209z" fill="#E14F25"/>
</svg>
