<?xml version="1.0" encoding="UTF-8"?>
<svg version="1.1" viewBox="0 0 900 900" width="1280" height="1280" xmlns="http://www.w3.org/2000/svg">
<path transform="translate(0)" d="m0 0h900v900h-900z" fill="#FDDE22"/>
<path transform="translate(679,408)" d="m0 0h15l26 3 18 5 12 5 13 7 10 8 10 9 11 13 10 15v4l-26 17-20 13-16 10h-4l-6-9-8-10-10-8-11-5-8-2h-20l-11 4-7 5h-2v2h-2l-6 12-2 13 2 14 6 10 1 3h2v2l4 2 11 7 16 8 32 14 24 11 21 11 15 10 14 11 12 12 10 15 7 14 5 16 2 9 1 10v28l-3 16-6 18-9 16-11 14-4 4h-2v2l-17 12-17 9-26 8-16 3-13 1h-33l-14-1-23-5-16-5-17-7-17-10-14-11-10-9-9-10-11-16-6-11 4-4 22-13 26-15 12-7 5-1 7 10 8 10 2 4 4 2v2l4 2 10 7 14 7 19 5h28l16-4 11-6 9-8 5-8 3-11v-8l-4-13-6-9-9-8-18-10-19-9-26-11-18-8-19-10-12-8-12-9-12-11-8-10-8-13-7-16-4-15-2-19v-16l2-17 5-17 8-17 9-12 9-10 11-9 13-8 11-5 15-5 14-3z" fill="#040202"/>
<path transform="translate(407,413)" d="m0 0h82l1 1v299l-1 16-6 25-6 15-9 15-8 10-8 8-16 11-15 7-16 5-14 3-13 1h-28l-16-2-17-4-21-8-15-9-11-8v-2l-4-2-12-13-10-15-7-12 1-3 19-12 25-15 22-13 4 1 7 14 9 11 7 7 8 5 13 4h17l12-3 8-4 5-5 6-9 3-11 2-11v-292z" fill="#040202"/>
<path transform="translate(750,420)" d="m0 0h11l10 5 6 4 6 7 9 9v2h2l3 4 1 6-5-1-7-6-7-8-13-11-14-8-2-1z" fill="#FEEC22"/>
<path transform="translate(295,710)" d="m0 0h8l-4 5-14 8-20 12-21 13-4 1 1-5 7-5 8-4 11-8 11-7h2v-2l11-6z" fill="#FEEA22"/>
<path transform="translate(618,419)" d="m0 0 2 2-4 4-15 10-12 11-10 13-9 17-5 15-1 5h-2l-1 4-1-10 4-9 1-5 3-3 1-5 3-3 3-7h2l2-5 2-3h2l2-4 8-10h2v-2l6-3 1-3 9-6z" fill="#FEE922"/>
<path transform="translate(402,418)" d="m0 0 2 1v27l-1 23-2 5-3-3-1-19v-18l2-12z" fill="#FFEE23"/>
<path transform="translate(238,758)" d="m0 0 3 1 9 15 8 10 10 11 2 1 1 5-3 3-1-2-5-3-8-10-2-5-3-5-7-7 1-3h-2l-2-4h2l-3-5z" fill="#FEEA22"/>
<path transform="translate(777,604)" d="m0 0 5 2 6 4 5 5 6 4 4 6v2h2l4 7 1 3 4 2 2 5h-3l-1-3-4-1-2-3-2-8h-3l-1-4-4-2-6-7-9-5-4-5z" fill="#FFEE23"/>
<path transform="translate(820,760)" d="m0 0h3l-1 6-4 6v2h-2l-2 4-3 1-1 5-11 12-10 8-2-1 6-7h2v-2l7-6 11-15z" fill="#FEE922"/>
<path transform="translate(560,781)" d="m0 0 3 2v2l4 2 10 8v2l5 2 1 4 1 2h-6l-2-3-5-3-12-12-1-4h2z" fill="#FEED22"/>
<path transform="translate(592,704)" d="m0 0 5 1v3l-25 14-3-1 1-3 5-3v2l2-1 1-3 6-1h2l2-5z" fill="#FEE922"/>
<path transform="translate(777,809)" d="m0 0 2 1-6 4-2 2-5 1v2l-10 2v2l-5 1v-3l5-2 1-2 10-4 5-3z" fill="#FEEA22"/>
<path transform="translate(727,504)" d="m0 0 7 5 2 6-1 3-6-2-5-8 1-2h2z" fill="#FEEC22"/>
<path transform="translate(313,720)" d="m0 0h5l1 4h2l4 6v3l-6-1-6-8z" fill="#FEEB22"/>
<path transform="translate(742,719)" d="m0 0h2l-1 8-7 10-3 3h-2v-2h2l2-8h2l2-6z" fill="#FEE922"/>
<path transform="translate(436,812)" d="m0 0 4 1-9 6-9 3-1-3z" fill="#FEE722"/>
<path transform="translate(755,591)" d="m0 0 4 1 8 4 3 3-2 3-4-2v-3h-5l-3-2z" fill="#FEED22"/>
<path transform="translate(806,633)" d="m0 0 4 2v2l4 2 2 5h-3l-1-3-4-1-2-3z" fill="#FEEB22"/>
<path transform="translate(830,735)" d="m0 0h2v9l-2 3h-3l1-8z" fill="#FFEE23"/>
<path transform="translate(637,413)" d="m0 0h4v2l-15 5-4-1 6-3z" fill="#FEE922"/>
<path transform="translate(466,788)" d="m0 0v3l-7 8h-3l6-8z" fill="#FEEB22"/>
<path transform="translate(647,530)" d="m0 0 4 1 2 5-5 1z" fill="#FEEB22"/>
<path transform="translate(452,801)" d="m0 0 3 1-7 6-4 1 2-4z" fill="#FEE722"/>
</svg>
