<?xml version="1.0" encoding="UTF-8"?>
<svg version="1.1" viewBox="0 0 1511 1020" width="1280" height="1280" xmlns="http://www.w3.org/2000/svg">
<path transform="translate(0)" d="m0 0h1511v1020h-1511z" fill="#F2FDFD"/>
<path transform="translate(1056,194)" d="m0 0h43l4 3 7 6 2 13v82l1 26h180l7 4 5 6 1 3v227l-1 4-5 5-3 2h-3v2l-8 2-1 10-1 199-3 7-7 6-7 2h-224l-3-1v-2l-5-1-1-5h-2l-1-5-1-133h-174l-1-2h-8l-5-3-4-6v-2l-2-1v-229h2l1-6 10-6 8-1 1-5v-163l1-22 2-9 3-1 2-3 3-1 17-1z" fill="#FBD1D3"/>
<path transform="translate(0,923)" d="m0 0h1511v97h-1511z" fill="#326767"/>
<path transform="translate(849,401)" d="m0 0h42l4 1h157l1-1h18l8 3 8 4 2 5v225l-4 10-8 6-9 2-1 1h-36l-1-1h-174l-1-2h-8l-5-3-4-6v-2l-2-1v-229h2l1-6z" fill="#C8E0FB"/>
<path transform="translate(1089,578)" d="m0 0h197l-1 11-1 199-3 7-7 6-7 2h-224l-3-1v-2l-5-1-1-5h-2l-1-5v-132l36-1 4-2 8-2 6-5 3-9z" fill="#EAF0D8"/>
<path transform="translate(1056,194)" d="m0 0h43l4 3 7 6 2 13v107l-39 1-11 2-4 4h-2l-2 6-1 2v29l-5-1-16-8-4-1v-2l-9-1-3 13-7 9-9 6-9 2-12-1-9-4v-2l-4-2v-2h-2l-4-6-2-5-1-8-9 2-17 7-4 1v2l-6 2v2h-3l-1 3-4 2-5 5-7 9-5 9v1h155l2-1v2h22l11 6-1 2-10-5-7-1h-15l-1 1h-157l-4-1-34-1 1-6v-163l1-22 2-9 3-1 2-3 3-1 17-1z" fill="#FDEED3"/>
<path transform="translate(134,593)" d="m0 0h259l8 5 3 6v42l-5 8-6 3h-259l-7-4-4-7v-42l4-7z" fill="#5A9496"/>
<path transform="translate(1224,95)" d="m0 0h163v90l-3 5-3 3-3 1h-154l-6-4-3-5v-81l4-6z" fill="#FEFEFE"/>
<path transform="translate(924,514)" d="m0 0h6l2 11 6 10 2 2 1 35 1 3 10 3 2 1h14l11-4 2-2 1-35 5-6 4-10 1-7 1-1h5l2 3v23l-3 10 1 8 6 7 16 8 14 9v2l3 1v2l3 1v2l3 1 6 8 8 16 4 9 4 16 2 9v6l-1 1h-210l1-15 4-15 6-15 8-14 8-10h2l1-3 14-10 15-8 6-2 1-2h2l1-3h2v-6h-2l-3-13v-15z" fill="#416A9D"/>
<path transform="translate(1136,705)" d="m0 0h2v13l6 5 9 3h15l10-4 3-1 1-4v-12l10 2 9 3 4 2v2l8 1 12 7 6 4 8 7v3l4 1 2 5h2l9 15 1 4 4 9 4 12v6l2 6 1 8-1 1h-214l-1-2 3-14 2-10 5-15 2-2 3-8 7-11 5-5 3-1 2-5h2v-2l10-7 11-6 8-1v-2l16-6z" fill="#758653"/>
<path transform="translate(1153,480)" d="m0 0h6l1 14 4 3 9 3h15l10-4 3-2 1-14h6l10 4 14 5v2l6 1v2l6 2 15 11 4 4 3 5 3 3 3 4v3h2l3 8 2 7v3h2l2 9 2 4 2 11 1 10h-199v-55l1-3h2l1-4h4l2-4 2-3h2l2-5 8-6 3-1 4-4 8-4 7-2 9-4z" fill="#B4363A"/>
<path transform="translate(976,224)" d="m0 0h23l10 3 7 4v2h3v2l4 2 3 2v2l4 2 7 11 3 8 1 6v20l-2 8h-2l-1 7h-2l-1 5-4 2-2 5h-2v3h-3l-1 3-11 7-1 36-2 3-5 3-5 1h-18l-7-2-5-3-1-2v-37l-5-1v-2h-3l-3-3v-2l-4-1v-2l-3-1-3-4v-2l-3-1-6-12-2-7v-23l5-13 6-9 4-5 10-8 11-5z" fill="#E68E7B"/>
<path transform="translate(1308,351)" d="m0 0h2v2h2l4 11 2 9 1 21v38l-1 117-3 15-2 9-8 20-3 7-2 7-3 16v142l-3 19-4 11-9 10-12 7-6 2-13 2h-166l-18-4-8-4-1-2-4-1v-2l42-1h172l9-3 5-5 2-6 1-199 1-10 3-2h6v-2l6-3 3-4h2l1-6h2l-1-32v-178z" fill="#E6F1EE"/>
<path transform="translate(1176,364)" d="m0 0h9l5 1v2h9v-2l12-1 3 1v2h2v6h-2l-1 3 13-1 3 1v9l-3 6-3 3h-2v20l-1 2-5 1v16l-1 11-2 6-4 11h-2l-2 5-3 5-11 6h-17l-8-4-7-6v-2h-2l-6-9-2-9-1-1-1-8v-22l-6 1v-19l2-10h2l1-5h2l2-4 2-3h2l1-3h3v-2l5-2h3v-2z" fill="#5C251A"/>
<path transform="translate(961,449)" d="m0 0 12 2 6 2v2l4 1 5 4 6 9 3 5v24l5 1 2 4-1 8-4 4h-6l-2 11-5 8-3 4-1 35-5 4-9 3h-14l-10-4-4-4-1-35-6-8-3-8v-7l-9-1-3-6 1-6 4-3h2v-20l4-6 3-7 2-3h2l2-4 11-6 5-2z" fill="#F9BFB0"/>
<path transform="translate(1153,600)" d="m0 0h15l4 3 7 1 5 5 8 10 2 2 1 3 1 2 1 16 5 3 2 4-1 5-1 3-4 2h-6l-2 13-1 3h-2l-1 4-1 2h-2l-1 24v12h7v1l-7 1-5 5-9 3h-15l-11-4-4-4-7-1v-1h7v-32l-1-3-4-4-4-8-1-11-6-1-4-2-2-3 1-7 5-2 1-5h1v-12l1-4 3-3 1-3h2l3-9 6-1 2-3 8-2z" fill="#FAC0B1"/>
<path transform="translate(134,593)" d="m0 0h107l-2 9-3 13-4 3v-2h-4v4h-2v2h2l1 9 2 4-5 15v6l-1 1h-91l-7-4-4-7v-42l4-7z" fill="#407677"/>
<path transform="translate(1065,756)" d="m0 0 1 2 5 2 14 6 18 6 20 4 11 2h51l19-3 15-4 20-6 15-6 1-3 3 7 5 12 2 7v6l2 6 1 8-1 1h-214l-1-2 3-14 2-10 5-15 2-2z" fill="#758654"/>
<path transform="translate(1241,495)" d="m0 0 7 4 11 8 4 4 3 5 3 3 3 4v3h2l3 8 2 7v3h2l2 9 2 4 2 11 1 10h-199v-55l1-3h2l1-4h4l2-4 2-3h2l2-5 8-6 4 2 6 22 3 15 3 19 1 20 96 1v-18l4-25 5-23 4-14z" fill="#DD4E52"/>
<path transform="translate(241,593)" d="m0 0h82l-4 17-3 10-8 1-3-1v13h3v-9l4-2 2 2v7l-5 16-2 10h-82v-7l5-15-2-4v-9h-2v-2h2v-4l5 1 3-5 2-10z" fill="#4A7E85"/>
<path transform="translate(976,224)" d="m0 0h23l10 3 7 4v2h3v2l4 2 3 2v2l4 2 7 11 3 8 1 6v20l-2 8h-2l-1 7h-2l-1 5-4 2-2 5h-2v3h-3l-1 3-5 3h-3l2-5 3-8 1-7 9-2 2-2v-8l-3-3-8-1-1-16-4-3h-53l-4 4-1 14-1 1-7 1-3 4v6l2 3 9 3 1 1 1 12h2l2 6h-4l-3-3v-2l-4-1v-2l-3-1-3-4v-2l-3-1-6-12-2-7v-23l5-13 6-9 4-5 10-8 11-5z" fill="#5D261B"/>
<path transform="translate(955,353)" d="m0 0 3 1 2 10 3 6 1 3h2l4 4v2l9 3 12 1 9-2 9-6 6-8 3-13 3-1 7 2v2l7 1 13 7 4 3v31l-1 1h-155l-1-2 5-9 7-9 3-3h2l2-4 3-1 1-2h3v-2l6-2v-2l16-7z" fill="#D7A657"/>
<path transform="translate(1136,705)" d="m0 0h2v13l6 5 9 3h15l10-4 3-1 1-4v-12l10 2 9 3 4 2v2l8 1 12 7 6 4 8 7v3l4 1v3l-4-2-23 7-21 4-12 2h-46l-20-3-24-6-13-5v-2h2l2-5h2v-2l10-7 11-6 8-1v-2l16-6z" fill="#758654"/>
<path transform="translate(924,514)" d="m0 0h6l2 11 6 10 2 2 1 35 1 3 10 3 2 1h14l11-4 2-2 1-35 5-6 4-10 1-7 1-1h5l2 3v23l-3 10 1 8 6 7 4 2-4 1-2 5-8 7-11 4h-5l1 6v24l4 16-1 3-3-6-5-18-1-24h-22l-4-2v27l4 16 1 7-3-3-4-16-2-15v-9l2-7-7-1-8-3-7-5v-2h-2v-5l4-2v-2l1-1h-2l1-3h2v-6h-2l-3-13v-15z" fill="#589195"/>
<path transform="translate(1113,498)" d="m0 0 4 2 6 22 3 15 3 19 1 21h-31l-7-1-1-1v-51l4-8h2l2-4 2-3h2l2-5z" fill="#DD4E52"/>
<path transform="translate(961,449)" d="m0 0 12 2 6 2v2l4 1 5 4 6 9 3 5v24l-3 1-2 5h-4l-3-14v-4h-47l-2 17-5 1-1-1v-5h-5v-20l4-6 3-7 2-3h2l2-4 11-6 5-2z" fill="#436C9B"/>
<path transform="translate(134,593)" d="m0 0h31l-1 10-4 15-2 7-3 11-2 10-4 11h-15l-7-4-4-7v-42l4-7z" fill="#326767"/>
<path transform="translate(1150,399)" d="m0 0 19 3 11 1h19l7-2h6v9l-2 12-3 9h-2v3l-4 3h-13l-2-2h-9l-4 2h-12v-2l-5-2-4-8-2-5-1-8v-11z" fill="#F7BAAB"/>
<path transform="translate(1180,660)" d="m0 0h10l1 6-2 9h-2l-1 4-1 2h-2l-1 24v12h7v1l-7 1-5 5-9 3h-15l-11-4-4-4-7-1v-1h7v-12l1-20h3l10 5h17l9-5v-3l-2-4h-2l-1-3v-7l2-5z" fill="#F7AD99"/>
<path transform="translate(935,514)" d="m0 0h5l5 3v2l3 1 1 9-3 5-4 4 1 2 10 4 12 1 10-3 4-1v-2h3v34l-5 4-9 3h-14l-10-4-4-4-1-35-6-8-3-8v-6z" fill="#F8B29D"/>
<path transform="translate(862,656)" d="m0 0h168v16l-1 4-8-2-8-4-12-3-23-1h-92l-16-4-8-5z" fill="#E6F1EE"/>
<path transform="translate(329,353)" d="m0 0h10l5 3 1-3h11v41l-4 8-6 4-4 1h-7l-9-3-5-5-1-6h11l3 3h7l3-3v-7l-4 3-8 1-7-3-5-6-2-7 1-10 3-6 5-4z" fill="#356A6A"/>
<path transform="translate(521,449)" d="m0 0h10l5 3 1-3h11v42l-5 8-5 3-4 1h-7l-9-3-5-6-1-5h11l3 3h7l3-3v-7l-4 3-8 1-8-4-4-5-2-8 1-9 4-7z" fill="#356A6A"/>
<path transform="translate(1089,580)" d="m0 0 9 1-1 9 4 1v-9l3-1 5 1 3 4h-2v2l-5 3v7l1 5v9l2 10-1 5-6-2-1-7-1-4 1-4-1-2-2 19 1 14-4 2v-2h-2l-1 5 3-1-2 4-4 4-6 3v3l5 3-1 4h-13l-3 1-3-3v-2l-3-1-1 5-2 1h-16l-9-1-2 16-3 4v-29l36-1 4-2 8-2 6-5 3-9z" fill="#E6F1ED"/>
<path transform="translate(362,449)" d="m0 0h10l2 3 4-3h10l6 4v2l6-5 3-1h9l6 4 3 4 1 4v24h-11l-1-21-2-4h-8l-2 3-1 22h-11l-1-23-2-2h-8l-1 1-1 24h-12v-35z" fill="#356B6B"/>
<path transform="translate(232,449)" d="m0 0h11l1 3 5-3h9l6 4h3l6-4h9l5 3 4 5 1 3v25h-11l-1-22-2-3h-8l-2 4-1 21h-11l-1-25h-11l-1 25h-11z" fill="#356B6B"/>
<path transform="translate(173,353)" d="m0 0h10l5 3 2-3h10l1 1v35h-12l-1-3-4 3-8 1-8-4-5-8v-13l4-8z" fill="#366B6B"/>
<path transform="translate(373,353)" d="m0 0h10l4 3 2-3h10l1 1v35h-12l-1-3-4 3-7 1-8-3-4-5-2-5v-12l3-6 5-5z" fill="#366B6B"/>
<path transform="translate(565,449)" d="m0 0h10l6 4v-4h11v36h-11l-1-3-8 4-8-1-6-4-4-8v-12l3-6 5-5z" fill="#366B6B"/>
<path transform="translate(674,353)" d="m0 0h10l5 4 1-4h10l1 1v35h-11v-4l-6 4-7 1-8-3-5-7-1-3v-12l3-6 5-5z" fill="#356B6B"/>
<path transform="translate(587,353)" d="m0 0h10l5 3 1-3h11v36h-11l-1-3-4 3-8 1-7-3-5-6-2-6v-8l3-8 6-5z" fill="#346A6A"/>
<path transform="translate(1111,205)" d="m0 0h1l2 18 4 1 3 9 2 10 1 51 3 12 9 15v2l-23 1-1-2-1-25v-81l-1-10z" fill="#E6F1EC"/>
<path transform="translate(503,353)" d="m0 0h10l5 3 1-3h11v36h-11l-1-3-4 3-8 1-7-3-5-6-2-7 1-10 4-7z" fill="#356A6A"/>
<path transform="translate(1153,600)" d="m0 0h15l4 3 7 1 5 5 8 10 2 2 1 3 1 2 1 14-4 2-1-1-1-16-7-2h-50l-5 1-1 17h-3l-1-14 1-4 3-3 1-3h2l3-9 6-1 2-3 8-2z" fill="#F8AF9B"/>
<path transform="translate(924,514)" d="m0 0h6l2 11 6 10 2 2 1 35 1 3 10 3 3 3h-3l1 3h-3l-3-1v27l4 16 1 7-3-3-4-16-2-15v-9l2-7-7-1-8-3-7-5v-2h-2v-5l4-2v-2l1-1h-2l1-3h2v-6h-2l-3-13v-15z" fill="#599294"/>
<path transform="translate(125,440)" d="m0 0h23l6 3 5 6v10l-3 5-5 4-3 1h-12v16h-11z" fill="#336868"/>
<path transform="translate(125,344)" d="m0 0h23l6 3 5 6v10l-3 5-5 4-3 1h-12v16h-11z" fill="#336868"/>
<path transform="translate(1158,467)" d="m0 0 8 6 7 3h17l11-6h1v6l-1 2h5l1 2h-5v14l-5 4-9 3h-15l-11-4-3-3v-14h-5l1-2h3l-1-7z" fill="#F6AB97"/>
<path transform="translate(961,449)" d="m0 0 12 2 6 2v2l4 1 5 4 6 9 3 5v15h-1l-1-13-1-2-4-2-29-3h-19l-11 4-3 5-1 2-1 17 2 1h-3v-20l4-6 3-7 2-3h2l2-4 11-6 5-2z" fill="#599395"/>
<path transform="translate(483,449)" d="m0 0h12l7 4 4 6 1 3v8h-25l3 5h9v-2h12l-2 6-6 5-6 2-10-1-6-4-4-6-1-3v-10l4-8z" fill="#366C6C"/>
<path transform="translate(202,449)" d="m0 0h12l7 4 4 6 1 3v8h-25l3 5h9v-2h12l-2 6-6 5-6 2-10-1-6-4-4-6-1-3v-10l4-8z" fill="#366C6C"/>
<path transform="translate(534,353)" d="m0 0h12l4 9 4 11 2-3 6-16 1-1h11l-1 5-19 45-2 3h-11l1-5 5-11-1-7-12-28z" fill="#366B6B"/>
<path transform="translate(709,353)" d="m0 0h10l2 3 5-3h9l6 4 3 6v26h-11l-1-23-3-3-7 1-1 1-1 24h-12v-35z" fill="#366C6C"/>
<path transform="translate(408,353)" d="m0 0h10l2 3 5-3h9l6 4 3 6v26h-11l-1-23-3-3-7 1-1 1-1 24h-12v-35z" fill="#356B6B"/>
<path transform="translate(278,353)" d="m0 0h10l2 3 5-3h9l6 4 3 6v26h-11l-1-23-3-3-7 1-1 1-1 24h-12v-35z" fill="#356B6B"/>
<path transform="translate(622,353)" d="m0 0h11l1 3 5-3h9l5 3 4 5 1 5v23h-12l-1-24-3-2-7 1-1 2-1 23h-11z" fill="#356A6A"/>
<path transform="translate(234,353)" d="m0 0h11l1 23 3 3h6l3-5 1-21h10l1 1v35h-11l-1-3-5 3-6 1-7-2-5-6-1-3z" fill="#356B6B"/>
<path transform="translate(318,449)" d="m0 0h11l1 23 3 3h6l3-5 1-21h10l1 1v35h-11l-1-3-5 3-6 1-7-2-5-6-1-3z" fill="#356B6B"/>
<path transform="translate(1009,328)" d="m0 0h1l1 23 8 2-3 14-7 9-9 6-9 2-12-1-9-4v-2l-4-2v-2h-2l-4-6-2-5-1-8-2-2 10-1v-9l2 2v22l5 2 7 2h18l6-2 4-1 1-3z" fill="#FBBFB0"/>
<path transform="translate(1065,756)" d="m0 0 1 2 5 2 14 6 18 6 20 4 11 2h51l19-3 15-4 20-6 15-6 1-3 2 7-14 5-10 4-9 2-5 2-11 3-20 3h-58l-21-4-20-6-17-6-7-4z" fill="#7CA7A3"/>
<path transform="translate(858,365)" d="m0 0h1l1 18 3 9 5 1 3-1 3-3 17 2 3 5 1 4 158 1-1 2h-157l-4-1-34-1 1-6z" fill="#E6F1EE"/>
<path transform="translate(210,344)" d="m0 0h11v9h7v10h-7l1 15 6 2v9h-10l-5-3-3-5v-18h-4v-10h4z" fill="#346A6A"/>
<path transform="translate(464,344)" d="m0 0h11v36h14l1 1v8h-26z" fill="#366B6C"/>
<path transform="translate(443,440)" d="m0 0h11v36h14v9h-25z" fill="#356A6A"/>
<path transform="translate(1082,733)" d="m0 0 4 1v2l8 1 6 2 20 5 24 3h30l25-3 26-6 10-4 4-1v3l4 1v3l-4-2-23 7-21 4-12 2h-46l-20-3-24-6-13-5v-2h2z" fill="#6FA09E"/>
<path transform="translate(599,438)" d="m0 0h12v47h-12z" fill="#386E6E"/>
<path transform="translate(165,449)" d="m0 0h11l1 4 6-4h4v12l-8 1-2 3-1 20h-11z" fill="#356B6B"/>
<path transform="translate(1356,62)" d="m0 0h7l6 4 3 5v7l-4 6-5 3h-7l-5-3-4-6v-7l4-6z" fill="#5A9496"/>
<path transform="translate(924,514)" d="m0 0h6l2 11 6 10 2 2v22l-4-4-3-9v-2h-2v8l-1 2-5-1-3-13v-15z" fill="#612D24"/>
<path transform="translate(1260,788)" d="m0 0 6 1 2 9-1 5h-172v-1l130-1 17-5 11-5z" fill="#5A9496"/>
<path transform="translate(993,514)" d="m0 0h5l2 3v23l-3 10-4 2-2-2-1-8-2-1v6l-3 7-3 1v-17l5-6 4-10 1-7z" fill="#612F25"/>
<path transform="translate(300,449)" d="m0 0h10l1 1v35h-12v-35z" fill="#396F6F"/>
<path transform="translate(1244,194)" d="m0 0h114l-2 2-16 3h-63l-22-1-5-2-6-1z" fill="#E6F1EE"/>
<path transform="translate(1093,516)" d="m0 0h2l-2 5-1 3v51l11 1 184 1v-5h1v6h-199v-55l1-3h2z" fill="#E78F7C"/>
<path transform="translate(192,69)" d="m0 0h5 3l7 1 2 1 3-2h6l4 4v14h-5l-1-13-5 1-1 12h-6l-1-12-5 1-1 11h-5z" fill="#5A9496"/>
<path transform="translate(1089,578)" d="m0 0h197v1l-62 1-108 1h-25l-2-1z" fill="#FCDAC7"/>
<path transform="translate(935,514)" d="m0 0h5l5 3v2l3 1 1 9-3 5-4 3-1 22h-1l-1-22-6-8-3-8v-6z" fill="#F5AA96"/>
<path transform="translate(983,514)" d="m0 0 9 1v7l-4 10-5 6-4-1v-2h-3l-3-6 1-7 3-5z" fill="#F6AB97"/>
<path transform="translate(858,365)" d="m0 0h1l1 18 3 9 5 1 3-1 3-3 17 2 3 5-1 4h-33v-3h-2z" fill="#E9F1DA"/>
<path transform="translate(1131,660)" d="m0 0h10l5 5 2 4-1 9-5 4-7-1-3-6-2-7v-7z" fill="#F8AE9A"/>
<path transform="translate(143,69)" d="m0 0h7l5 4 1 7-3 5-3 2h-7l-5-4-1-7 3-5z" fill="#5A9496"/>
<path transform="translate(1065,756)" d="m0 0 1 2 5 2 14 6 18 6 20 4 13 3v1l-12 1-15-3-20-6-17-6-7-4z" fill="#7EA8A3"/>
<path transform="translate(177,69)" d="m0 0h7l5 5v5h-12l1 3 11-1-3 5-2 1h-8l-4-4-1-7 3-5z" fill="#649B9C"/>
<path transform="translate(1238,733)" d="m0 0 1 3 4 1v3l-4-2-23 7-21 4h-20l6-3 18-2 26-6 10-4z" fill="#6D9E9D"/>
<path transform="translate(894,397)" d="m0 0 2 2h155l2-1v2h22l11 6-1 2-10-5-7-1-173-1z" fill="#FDEED4"/>
<path transform="translate(336,362)" d="m0 0 5 1 4 4v8l-5 5-7-1-3-3v-9l3-4z" fill="#F1FCFC"/>
<path transform="translate(572,458)" d="m0 0 6 2 3 5-1 7-5 4h-5l-4-4-1-2v-6l4-5z" fill="#F1FCFC"/>
<path transform="translate(528,458)" d="m0 0 5 1 4 4v8l-5 5-7-1-3-4v-8l4-4z" fill="#F1FCFC"/>
<path transform="translate(510,362)" d="m0 0 5 1 4 4v8l-5 5-7-1-3-4v-8l3-4z" fill="#F2FDFC"/>
<path transform="translate(181,362)" d="m0 0 6 2 2 3v9l-5 4-7-1-3-4v-8l4-4z" fill="#F2FDFC"/>
<path transform="translate(681,362)" d="m0 0 6 2 2 2 1 6-2 5-4 3-7-1-3-5v-6l4-5z" fill="#F2FDFC"/>
<path transform="translate(594,362)" d="m0 0 7 2 2 4v7l-5 5-7-1-3-3v-9l3-4z" fill="#F2FDFC"/>
<path transform="translate(380,362)" d="m0 0 6 2 2 2v10l-5 4-7-1-3-5v-6l2-4z" fill="#F2FDFD"/>
<path transform="translate(1136,705)" d="m0 0h2v12l-7 1h-9l-8-2 1-4 16-6z" fill="#72875B"/>
<path transform="translate(1055,788)" d="m0 0 4 2 19 9 6 2v1h-30z" fill="#768653"/>
<path transform="translate(1182,705)" d="m0 0 10 2 9 3 4 2v4l-8 2h-8l-7-1z" fill="#72875C"/>
<path transform="translate(586,537)" d="m0 0 8 1v16l-3 3-5 1-4-2-1-3 9 1v-3h-6l-3-3-1-5 3-5z" fill="#4E8389"/>
<path transform="translate(1056,783)" d="m0 0 1 2 5 2 14 7 15 6 4 2-6 1h-36l-1-2 2-11h1l-1 12 27-1-12-5-11-6-3-3z" fill="#679B9B"/>
<path transform="translate(1262,791)" d="m0 0h4l2 7v4h-31l3-2 16-6z" fill="#748656"/>
<path transform="translate(383,533)" d="m0 0h3v18h-11l-3-4 1-7 5-3 4 1z" fill="#4F858B"/>
<path transform="translate(1254,756)" d="m0 0 2 1 1 6-14 5-10 4-9 2-5 2h-10v-2l21-6 15-5 9-4z" fill="#7EA8A3"/>
<path transform="translate(184,537)" d="m0 0 6 2 1 2v7l-3 3h-6l-1 6h-3v-19z" fill="#4E8389"/>
<path transform="translate(292,619)" d="m0 0 9 1v13h-11l-3-4v-6z" fill="#F5F9F8"/>
<path transform="translate(1221,398)" d="m0 0h1l1 11-1 8 2 5v7l-1 2h-3v2l-5 1v5h-1v-22l1-1h5z" fill="#ECAD9B"/>
<path transform="translate(529,537)" d="m0 0 8 1v13h-11l-3-4 1-7z" fill="#4F858A"/>
<path transform="translate(340,537)" d="m0 0 8 1v13h-11l-3-4 1-7z" fill="#4F858A"/>
<path transform="translate(278,537)" d="m0 0 8 1v13h-11l-3-4 1-7z" fill="#4F858A"/>
<path transform="translate(308,537)" d="m0 0 8 1v13h-10l-3-2-1-7 3-4z" fill="#4F858A"/>
<path transform="translate(326,619)" d="m0 0 8 1v13h-10l-3-3-1-5 3-5z" fill="#F9FCFB"/>
<path transform="translate(257,620)" d="m0 0h11l1 13h-11l-3-3v-7z" fill="#F8FBFB"/>
<path transform="translate(934,485)" d="m0 0h3v10l-1 8-5 1-1-1v-5l-4-1v-9l1-2z" fill="#5F241A"/>
<path transform="translate(554,537)" d="m0 0 8 1v13h-10l-3-3-1-4 3-6z" fill="#4E8389"/>
<path transform="translate(212,620)" d="m0 0h11v13h-10l-3-3v-8z" fill="#FBFCFC"/>
<path transform="translate(233,537)" d="m0 0 8 1v13h-10l-3-3v-7l3-3z" fill="#4D8288"/>
<path transform="translate(987,486)" d="m0 0 9 2 1 1v9l-3 1-2 5h-4l-2-7v-10z" fill="#60261B"/>
<path transform="translate(1143,416)" d="m0 0h3l1 26-2-3-1-5-7-4-1-8 4-5z" fill="#F5B6A6"/>
<path transform="translate(418,537)" d="m0 0 5 2 2 2v7l-3 3h-7l-3-3v-7l3-3z" fill="#4E8389"/>
<path transform="translate(1093,516)" d="m0 0h2l-2 5-1 3v51l7 1 1 2h-11v-55l1-3h2z" fill="#E7917F"/>
<path transform="translate(1049,69)" d="m0 0h9v13l-2 3h-7l-2-4h3v2l4-1v-2h-5l-2-2v-7z" fill="#5A9496"/>
<path transform="translate(458,537)" d="m0 0 6 2 5-2 4 3 1 3v8h-3l-1-9-5-2-1 11h-3l-1-10h-4l-1 10h-3v-13z" fill="#4E8489"/>
<path transform="translate(123,65)" d="m0 0h5l1 17 6 1v4h-12z" fill="#5A9496"/>
<path transform="translate(1143,747)" d="m0 0h36v1l8 1-4 2h-46v-2h6z" fill="#5A9496"/>
<path transform="translate(1063,69)" d="m0 0h8v14l-2 2h-6l-2-1v-3l7 1 1-3-6 1-3-3 1-7z" fill="#5A9496"/>
<path transform="translate(148,537)" d="m0 0 6 2 2 6-1 1h-9l1 2 8-1-1 3-2 1h-6l-3-3-1-5 3-5z" fill="#74A2A5"/>
<path transform="translate(301,434)" d="m0 0h7l3 2 1 4-3 5-6 1-5-5 1-5z" fill="#386D6E"/>
<path transform="translate(501,537)" d="m0 0 5 2 2 2v5l-9 1 4 1 5-1-3 4h-7l-3-4 1-7z" fill="#6D9CA0"/>
<path transform="translate(442,537)" d="m0 0 6 2 1 7-9 1 4 1 5-1-3 4h-6l-4-4 1-7z" fill="#65969A"/>
<path transform="translate(136,449)" d="m0 0h9l3 3-1 7-2 1h-9z" fill="#F2FDFD"/>
<path transform="translate(136,353)" d="m0 0h9l3 3-1 7-2 1h-9z" fill="#F2FDFD"/>
<path transform="translate(159,69)" d="m0 0h5l1 2 2-2h3v5l-5 2-1 11h-5z" fill="#5A9496"/>
<path transform="translate(1260,788)" d="m0 0 6 1v2l-26 10h-7v-2l16-6z" fill="#6E9F9D"/>
<path transform="translate(920,69)" d="m0 0h9v11h-9l-3-4 1-5z" fill="#5A9496"/>
<path transform="translate(1271,69)" d="m0 0h9v11h-9l-2-2v-7z" fill="#5A9496"/>
<path transform="translate(1217,69)" d="m0 0h9v11h-9l-2-2v-7z" fill="#5A9496"/>
<path transform="translate(893,69)" d="m0 0h9v11h-9l-2-2v-7z" fill="#5A9496"/>
<path transform="translate(1153,666)" d="m0 0h15l-1 6-5 3-6-1-3-2z" fill="#F3E8D6"/>
<path transform="translate(345,619)" d="m0 0 5 2 1 1v11h-3l-1-10h-5v10h-4v-13z" fill="#F9FCFB"/>
<path transform="translate(867,69)" d="m0 0h9v11h-8l-3-3 1-7z" fill="#5A9496"/>
<path transform="translate(1196,69)" d="m0 0h8v11h-8l-3-3 1-7z" fill="#5A9496"/>
<path transform="translate(1103,69)" d="m0 0h8v11h-8l-3-3 1-7z" fill="#5A9496"/>
<path transform="translate(194,615)" d="m0 0h3l1 5h6l2 2v11h-3v-10l-5 1-1 9h-3z" fill="#FCFDFD"/>
<path transform="translate(311,619)" d="m0 0 5 2 2 3v9h-4l-1-9-2-1-2 1-1 9h-3v-13z" fill="#F8FBFA"/>
<path transform="translate(271,620)" d="m0 0h4l3 7 3-7h4l-3 9-5 10h-3l1-8z" fill="#F8FBFB"/>
<path transform="translate(213,533)" d="m0 0h3l1 5 3-1 5 3v11h-3l-1-10h-4l-1 10h-3z" fill="#4F848A"/>
<path transform="translate(130,534)" d="m0 0 7 1 3 4h-4v-2l-7 1-1 1v7l3 2 5-1 4-1-2 4-2 1h-7l-5-5v-7l4-4z" fill="#4E848A"/>
<path transform="translate(945,584)" d="m0 0h1l1 26 4 16 1 7-3-3-4-16-2-15v-9z" fill="#D7E9F6"/>
<path transform="translate(1065,756)" d="m0 0 1 2 5 2 14 6 5 2-2 3-9-3-8-3-6-3z" fill="#77A4A1"/>
<path transform="translate(511,533)" d="m0 0 3 1 1 7 3-3 3 1-4 6 5 6-5-1-2-2-1 3h-3z" fill="#4E8389"/>
<path transform="translate(158,533)" d="m0 0h3l1 9 3-4 4 1-4 4 1 4 3 4-5-1-2-3-1 4h-3z" fill="#4E848A"/>
<path transform="translate(1255,158)" d="m0 0 6 2h2l1 5h1l1-5h2v7h-6l-2-1-6 1-2-2v-5z" fill="#F2AA9A"/>
<path transform="translate(326,537)" d="m0 0 5 3 1 2v9h-3l-1-9-4-1-1 1-1 9h-3v-13z" fill="#4E8489"/>
<path transform="translate(1234,160)" d="m0 0 7 1 4-1 2 1v8l-5 1-1-2 4 1v-2l-4-1h-2l-5 1-1-1v-5z" fill="#F6C7BB"/>
<path transform="translate(357,537)" d="m0 0 5 2 2 4v8h-3l-1-9-5-2-1 11h-3v-13z" fill="#4F858A"/>
<path transform="translate(572,537)" d="m0 0 5 2 1 2v10h-3l-1-10h-4l-1 10h-3v-13z" fill="#51888C"/>
<path transform="translate(251,537)" d="m0 0 5 2 1 2v10h-3l-1-10h-4l-1 10h-3v-13z" fill="#4E8489"/>
<path transform="translate(981,312)" d="m0 0h13v6l-4 2h-6l-3-5z" fill="#F4EADD"/>
<path transform="translate(1235,120)" d="m0 0 4 1v2h2l1-3h5v9l-5 1-1-2h4l-6-2-5 1-1-1v-5z" fill="#719B9C"/>
<path transform="translate(591,538)" d="m0 0h3v16l-3 3-5 1-4-2-1-3 9 1 1-4h-2l1-8z" fill="#4E8389"/>
<path transform="translate(1234,66)" d="m0 0h7l3 3-1 4-4 2h-3v5h-2z" fill="#7BAAAC"/>
<path transform="translate(288,538)" d="m0 0h3l3 7 2-3 2-4 3 1-7 17-4 1 2-7-4-10z" fill="#4E848A"/>
<path transform="translate(1169,600)" d="m0 0 5 1 9 4 1 3 4 2 2 4 3 1 3 5-1 5-2-4-10-12-5-4-7-2-2-1z" fill="#FDE6D1"/>
<path transform="translate(1065,646)" d="m0 0 2 3v6l-1 1h-35l1-2h33z" fill="#538A8E"/>
<path transform="translate(1010,66)" d="m0 0h7l2 2v5l-4 2h-3v5h-2z" fill="#7BAAAB"/>
<path transform="translate(1206,774)" d="m0 0h3v2h5l-3 2-3 1-25 1 2-2 19-3z" fill="#8BAFA8"/>
<path transform="translate(1248,69)" d="m0 0 7 1 1 5h-8l1 2h6v2l-7 1-3-3v-5z" fill="#71A3A5"/>
<path transform="translate(1024,69)" d="m0 0h5l3 3v3h-8l1 2h6l-2 3-7-1-1-7z" fill="#71A3A5"/>
<path transform="translate(487,537)" d="m0 0 5 2 1 3-7-1 3 2 4 3-1 4-1 1h-6l-3-3 3-1 5 2v-3l-7-2v-5z" fill="#4D8288"/>
<path transform="translate(975,586)" d="m0 0 2 1v15l3 18 3 10-1 3-3-6-3-11-1-10z" fill="#DCEDF9"/>
<path transform="translate(1174,441)" d="m0 0h13l-1 5-4 2-6-1-2-2z" fill="#FCF8EF"/>
<path transform="translate(1357,78)" d="m0 0 7 1 3 2v2l-4 2h-7l-4-2 1-3z" fill="#F0FBFA"/>
<path transform="translate(292,619)" d="m0 0 4 1v3h-5l1 6 6 2-1 2h-7l-3-4v-6z" fill="#F7FAFA"/>
<path transform="translate(1182,66)" d="m0 0h6l3 4-8-1-2 5 2 3 8-1-3 4h-6l-4-4v-6z" fill="#5A9496"/>
<path transform="translate(1193,745)" d="m0 0 12 1-3 2-7 1h-20l6-3z" fill="#74A2A0"/>
<path transform="translate(1074,69)" d="m0 0h3l1 8h3l1-8h3v11h-9l-2-3z" fill="#5A9496"/>
<path transform="translate(1202,712)" d="m0 0h3v4l-8 2h-8l-7-1v-2l11-1z" fill="#5A9496"/>
<path transform="translate(1115,712)" d="m0 0 10 2 12 1 1 2-7 1h-9l-8-2z" fill="#5A9496"/>
<path transform="translate(244,616)" d="m0 0h3v14h6v3h-9z" fill="#FBFCFC"/>
<path transform="translate(485,458)" d="m0 0h8l3 5-1 1h-13l2-5z" fill="#EFFAF9"/>
<path transform="translate(204,458)" d="m0 0h8l3 5-1 1h-13l2-5z" fill="#EFFAF9"/>
<path transform="translate(878,69)" d="m0 0h3l3 6 3-6h2l-1 5-5 11-3-1 1-6z" fill="#5A9496"/>
<path transform="translate(1056,783)" d="m0 0 1 2 5 2 11 6v2l-8-1-10-6z" fill="#71A19E"/>
<path transform="translate(1132,610)" d="m0 0 2 1-3 6h-2l-1 5-3 5v13l-2-1v-13l4-10z" fill="#FDE8D2"/>
<path transform="translate(257,620)" d="m0 0h9v2l-7 2v6l4 1v2h-5l-3-3v-7z" fill="#F9FCFB"/>
<path transform="translate(175,616)" d="m0 0h3v14h5v3h-8z" fill="#FBFDFC"/>
<path transform="translate(228,617)" d="m0 0h3v3h3v2l-2 1-1 7h3v3l-5-1-1-1v-9h-2v-2h2z" fill="#FCFDFD"/>
<path transform="translate(1034,69)" d="m0 0h8l2 2v9h-2l-1-9-3 1-1 8h-3z" fill="#5A9496"/>
<path transform="translate(932,69)" d="m0 0h8l2 2v9h-3l-1-8-3-1-1 9h-2z" fill="#5A9496"/>
<path transform="translate(1088,69)" d="m0 0h8l2 2v9h-3l-1-8h-3l-1 8h-2z" fill="#5A9496"/>
<path transform="translate(378,537)" d="m0 0 5 2-2 2-5 1v6l5 2v1h-6l-3-4 1-7z" fill="#4F858A"/>
<path transform="translate(402,534)" d="m0 0h3v15h5v2h-8z" fill="#4E8489"/>
<path transform="translate(1238,733)" d="m0 0 1 3 4 1v3l-4-2-11 3-3-1 1-3 9-3z" fill="#75A3A0"/>
<path transform="translate(184,537)" d="m0 0 6 2 1 2v7l-3 3h-6l1-2 4-2 1-6h-6v-3z" fill="#4E8389"/>
<path transform="translate(1357,68)" d="m0 0h5l2 2-1 5-4 2-4-4 1-4z" fill="#EFFAF9"/>
<path transform="translate(528,540)" d="m0 0 5 1 1 5-3 3-4-1-1-1v-5z" fill="#F0FBFA"/>
<path transform="translate(377,540)" d="m0 0 5 1 1 1v5l-2 2-5-1-1-6z" fill="#F0FBFA"/>
<path transform="translate(339,540)" d="m0 0 5 1 1 5-3 3-4-1-1-1v-5z" fill="#F0FBFA"/>
<path transform="translate(307,540)" d="m0 0 5 1 1 1v5l-2 2-5-1-1-6z" fill="#F0FBFA"/>
<path transform="translate(1260,69)" d="m0 0h5l1 3-5-1v2l5 2v4l-1 1-7-1v-2l6 1v-2l-6-2v-4z" fill="#5A9496"/>
<path transform="translate(585,540)" d="m0 0 5 1 1 1v5l-2 2-5-1-1-5z" fill="#F0FBFA"/>
<path transform="translate(277,540)" d="m0 0 5 1 1 5-3 3-4-1-1-1v-5z" fill="#F0FBFA"/>
<path transform="translate(1283,69)" d="m0 0h8l2 2v9h-2l-1-7-4-2-1 9h-2z" fill="#5A9496"/>
<path transform="translate(905,69)" d="m0 0h8l2 2v9h-2l-1-9-4 2-1 7h-2z" fill="#5A9496"/>
<path transform="translate(416,540)" d="m0 0 6 1v6l-2 2-5-1v-7z" fill="#F1FCFB"/>
<path transform="translate(338,620)" d="m0 0 5 1-1 12h-4z" fill="#F4F9F7"/>
<path transform="translate(200,533)" d="m0 0h3v18h-3z" fill="#4F868B"/>
<path transform="translate(1053,400)" d="m0 0h22l11 6-1 2-10-5-7-1-15-1z" fill="#E6F1EE"/>
<path transform="translate(144,74)" d="m0 0h5l1 1v6l-5 2-2-2v-6z" fill="#F0FBFB"/>
<path transform="translate(553,540)" d="m0 0 5 1 1 1v5l-2 2-4-1-1-1v-6z" fill="#F1FCFC"/>
<path transform="translate(233,540)" d="m0 0 5 1v6l-2 2-4-1-1-1v-6z" fill="#F1FCFC"/>
<path transform="translate(183,540)" d="m0 0 5 1v6l-2 2-4-1-1-1v-6z" fill="#F1FCFC"/>
<path transform="translate(267,533)" d="m0 0h2v18h-3v-17z" fill="#4F858B"/>
<path transform="translate(1135,681)" d="m0 0 3 1 1 3v20l-5 1 1-2h2l-1-21z" fill="#FEEFD4"/>
<path transform="translate(546,537)" d="m0 0 1 4-3 1-1 9h-3v-13z" fill="#50868B"/>
<path transform="translate(130,534)" d="m0 0 7 1 3 4h-4v-2l-7 1-2 6-3-2 1-5z" fill="#50868B"/>
<path transform="translate(144,541)" d="m0 0 1 3h7v1h-7l2 3 8-1-1 3-2 1h-6l-3-3-1-5z" fill="#4C8187"/>
<path transform="translate(428,538)" d="m0 0h7l-1 3h-3v10h-3z" fill="#4E8489"/>
<path transform="translate(1082,733)" d="m0 0 4 1v2l8 1 2 3-11-1-5-2v-2h2z" fill="#75A3A0"/>
<path transform="translate(216,622)" d="m0 0 4 2v5l-1 1h-5l-1-1v-5z" fill="#457C7D"/>
<path transform="translate(261,622)" d="m0 0 4 2v5l-1 1h-5l-1-6z" fill="#4D8288"/>
<path transform="translate(200,620)" d="m0 0 5 1 1 1v11h-3v-10l-4-2z" fill="#FDFEFE"/>
<path transform="translate(958,522)" d="m0 0h9v4l-2 1h-6l-2-1z" fill="#FCFEFE"/>
<path transform="translate(1089,739)" d="m0 0h11l6 2v2l-5 1-10-3z" fill="#689C9B"/>
<path transform="translate(275,538)" d="m0 0 2 1-1 8 5 3v1h-6l-3-4 1-7z" fill="#4E8489"/>
<path transform="translate(1219,771)" d="m0 0h2v2l3 1-5 2h-10v-2z" fill="#7CA7A2"/>
<path transform="translate(325,623)" d="m0 0h5l1 5-1 2h-5l-1-6z" fill="#5A9496"/>
<path transform="translate(566,538)" d="m0 0h5l-2 13h-3z" fill="#4E8489"/>
<path transform="translate(1199,657)" d="m0 0h2v2l-7 3-2 9-3 4 1-12 2-4z" fill="#FDEAD2"/>
<path transform="translate(305,620)" d="m0 0 4 1-1 12h-3z" fill="#FEFEFE"/>
<path transform="translate(319,538)" d="m0 0 4 1-1 12h-3z" fill="#4F858A"/>
<path transform="translate(1207,69)" d="m0 0h6v3l-2 1-1 7h-3z" fill="#5A9496"/>
<path transform="translate(1220,739)" d="m0 0 8 1-1 2-11 2-2-1v-2z" fill="#6A9C9C"/>
<path transform="translate(291,623)" d="m0 0h5l1 1v5l-5 1-2-4z" fill="#4C8187"/>
<path transform="translate(187,620)" d="m0 0h3v13h-3z" fill="#F6FAF9"/>
<path transform="translate(389,538)" d="m0 0h3v13h-3z" fill="#4F858A"/>
<path transform="translate(206,538)" d="m0 0h3v13h-3z" fill="#4F858A"/>
<path transform="translate(194,538)" d="m0 0h3v13h-3z" fill="#4F858A"/>
<path transform="translate(1153,666)" d="m0 0h6v2l-3 2v2l8 1-2 2-6-1-3-2z" fill="#F7DED5"/>
<path transform="translate(893,399)" d="m0 0 2 1 15 1-1 2h-14l-4-1v-2z" fill="#E6F1EB"/>
<path transform="translate(857,66)" d="m0 0h2v12h5v2h-7z" fill="#5A9496"/>
<path transform="translate(1188,612)" d="m0 0h2v2l3 1 3 5-1 5-2-4-6-8z" fill="#FDE6CE"/>
<path transform="translate(1235,120)" d="m0 0 4 1v5l-5 1-1-1v-5z" fill="#83A9AA"/>
<path transform="translate(1227,769)" d="m0 0 8 1-2 2-3 1h-9v-2z" fill="#6C9E9D"/>
<path transform="translate(1156,668)" d="m0 0h7v4l-5 1-3-3z" fill="#FCFEFE"/>
<path transform="translate(1159,648)" d="m0 0 3 2 1 7 2 1-6 2z" fill="#F09F8C"/>
<path transform="translate(304,541)" d="m0 0h1l1 7 5 2v1l-7-1-2-4v-4z" fill="#4E8489"/>
<path transform="translate(954,521)" d="m0 0h14l1 3-2 2v-4l-9 1-1 3h-3l-1-4z" fill="#F7D9D5"/>
<path transform="translate(998,285)" d="m0 0 4 1 1 4-2 3-4-2z" fill="#93302E"/>
<path transform="translate(1238,797)" d="m0 0h7l-1 3-4 1h-7v-2z" fill="#85ACA6"/>
<path transform="translate(525,541)" d="m0 0h1l2 7 3 1v2h-5l-3-4v-5z" fill="#4D8389"/>
<path transform="translate(336,541)" d="m0 0h1l2 7 3 1v2h-5l-3-4v-5z" fill="#4D8389"/>
<path transform="translate(1e3 500)" d="m0 0 3 4-3 10-2 8h-1l-1-8h2l2-6z" fill="#E8F0EB"/>
<path transform="translate(1261,160)" d="m0 0h2l1 5h1l1-5h2v7h-6l-2-5z" fill="#F8B9AB"/>
<path transform="translate(895,71)" d="m0 0 4 1v5l-4 1-2-2 1-4z" fill="#EEF9F8"/>
<path transform="translate(869,71)" d="m0 0 4 1 1 4-2 2-4-1v-5z" fill="#EEF9F8"/>
<path transform="translate(1115,712)" d="m0 0 10 2 1 2-9 1-3-2z" fill="#72A19F"/>
<path transform="translate(1102,634)" d="m0 0 2 3v9l-3-1-1-5z" fill="#E6F1EE"/>
<path transform="translate(177,79)" d="m0 0h12l-1 2-6 2-5-1z" fill="#EBF6F5"/>
<path transform="translate(1273,71)" d="m0 0 4 1v5l-4 1-2-2 1-4z" fill="#EFFAF9"/>
<path transform="translate(1197,71)" d="m0 0 4 1 1 4-4 2-2-1v-5z" fill="#EFFAF9"/>
<path transform="translate(1104,71)" d="m0 0 4 1 1 4-4 2-2-1v-5z" fill="#EFFAF9"/>
<path transform="translate(1064,71)" d="m0 0 4 1 1 4-4 2-2-1v-5z" fill="#EFFAF9"/>
<path transform="translate(1051,71)" d="m0 0 4 1v5l-4 1-2-2 1-4z" fill="#EFFAF9"/>
<path transform="translate(1126,777)" d="m0 0 10 2v1l-12 1-3-2h5z" fill="#83AAA5"/>
<path transform="translate(1081,765)" d="m0 0 9 3-2 3-9-3 2-1z" fill="#5F9697"/>
<path transform="translate(515,543)" d="m0 0 5 5 2 3-5-1-2-2-2 3v-6z" fill="#51888C"/>
<path transform="translate(1219,71)" d="m0 0 4 1v5l-4 1-2-4z" fill="#EEF9F9"/>
<path transform="translate(922,71)" d="m0 0 4 1-1 5h-4l-1-4z" fill="#EEF9F8"/>
<path transform="translate(590,550)" d="m0 0 1 4-1 1h-5l-4-3z" fill="#EEF9F8"/>
<path transform="translate(550,542)" d="m0 0h1v5l6 2 1 2h-6l-3-3-1-4z" fill="#4D8288"/>
<path transform="translate(975,285)" d="m0 0 3 1v5l-3 2-2-2 1-5z" fill="#7A2A24"/>
<path transform="translate(1254,756)" d="m0 0 2 1 1 6-6 1-3-2 6-3z" fill="#5F9798"/>
<path transform="translate(229,542)" d="m0 0h1v5l6 2 1 2h-6l-3-3v-5z" fill="#4C8187"/>
<path transform="translate(554,537)" d="m0 0 4 1-1 3h-4l-1 6-3-4 2-5z" fill="#50868B"/>
<path transform="translate(233,537)" d="m0 0 4 1-1 3h-5v6l-3-4 1-4z" fill="#50868B"/>
<path transform="translate(961,504)" d="m0 0 3 3 1 7h-5z" fill="#F0A18D"/>
<path transform="translate(1180,423)" d="m0 0 3 3 1 7-1 2-4-1 2-4z" fill="#E78F7C"/>
<path transform="translate(1250,792)" d="m0 0m-1 1 2 4-7 2-2-3z" fill="#5F9798"/>
<path transform="translate(502,538)" d="m0 0 4 1 2 2v4h-9v-1h6l-1-3-2-1z" fill="#4B8086"/>
<path transform="translate(1245,161)" d="m0 0h2v8l-5 1-1-2 4 1v-2h-3v-2h3z" fill="#EEA696"/>
<path transform="translate(918,507)" d="m0 0 3 4v2h5l-2 1v5h-2l-4-8z" fill="#EBEDE8"/>
<path transform="translate(972,495)" d="m0 0 4 2v4l-4 1-1-5z" fill="#7F3129"/>
<path transform="translate(1266,70)" d="m0 0 1 2h2v5l-8-4v-2l5 1z" fill="#ECF7F5"/>
<path transform="translate(1064,791)" d="m0 0h6l3 2v2l-8-1z" fill="#7FA9A4"/>
<path transform="translate(1202,712)" d="m0 0h3v2h-6v2h-8l2-2z" fill="#8CB0A9"/>
<path transform="translate(1171,640)" d="m0 0h3l1 5-4 2-1-5z" fill="#812B27"/>
<path transform="translate(487,537)" d="m0 0 5 2 1 3-10-1 1-3z" fill="#50878C"/>
<path transform="translate(1168,414)" d="m0 0 3 2-1 4h-4v-5z" fill="#852C28"/>
<path transform="translate(1254,160)" d="m0 0h4v5l-3 1-2-1z" fill="#FAF8F3"/>
</svg>
