<?xml version="1.0" encoding="UTF-8"?>
<svg version="1.1" xmlns="http://www.w3.org/2000/svg" width="453" height="550">
<path d="M0 0 C0.93392578 0.556875 0.93392578 0.556875 1.88671875 1.125 C3.46453125 1.99125 3.46453125 1.99125 5.07421875 2.875 C12.017787 8.4298546 15.66135259 16.1979213 19.32421875 24.125 C20.04025269 25.64685913 20.04025269 25.64685913 20.77075195 27.19946289 C23.75843819 33.58346396 26.6248996 40.01332106 29.40087891 46.49169922 C31.63576918 51.66660557 34.13373885 56.68013772 36.69384766 61.70043945 C40.08906541 68.41212409 43.15669803 75.26383505 46.2409668 82.12255859 C49.06689085 88.38435755 52.05669267 94.51959671 55.17578125 100.640625 C57.19579391 104.75444074 59.04752646 108.92801489 60.88671875 113.125 C63.16405723 118.318173 65.49656804 123.4465317 68.07421875 128.5 C71.67701962 135.58964952 75.03910572 142.78691245 78.38671875 150 C78.81618805 150.92513397 78.81618805 150.92513397 79.2543335 151.86895752 C82.76985661 159.4516291 86.20520885 167.06172281 89.50048828 174.74267578 C91.72773786 179.88258858 94.22409371 184.85876005 96.7668457 189.84667969 C99.89864072 196.03668642 102.71326878 202.35364316 105.52636719 208.69335938 C108.18900003 214.66077597 111.03724916 220.50366218 114.00561523 226.32373047 C116.65280293 231.55471597 119.00675143 236.88356513 121.31518555 242.27099609 C123.17946001 246.59188187 125.18772434 250.80435034 127.32421875 255 C130.00433624 260.26451649 132.45817583 265.58763373 134.82421875 271 C137.67493124 277.51788449 140.72575389 283.88927198 143.95678711 290.22607422 C146.26781092 294.79375814 148.37302934 299.41932581 150.38671875 304.125 C152.67529308 309.47128632 155.11959053 314.69435642 157.76171875 319.875 C161.25021581 326.71625494 164.41212181 333.67496577 167.52636719 340.69335938 C170.18900003 346.66077597 173.03724916 352.50366218 176.00561523 358.32373047 C178.65280293 363.55471597 181.00675143 368.88356513 183.31518555 374.27099609 C185.17946001 378.59188187 187.18772434 382.80435034 189.32421875 387 C193.14931654 394.52096931 196.57269752 402.20594907 199.92138672 409.94946289 C200.58624912 411.44784146 201.27986076 412.93368257 201.99658203 414.40795898 C205.82114617 422.4085659 206.31046268 430.39195628 204.15625 439.06640625 C203.22694689 441.55086967 202.17268467 443.80687723 200.88671875 446.125 C200.53609375 446.76953125 200.18546875 447.4140625 199.82421875 448.078125 C194.12613551 457.17923018 184.35380076 460.33497811 174.51171875 463.0625 C172.55914292 463.62637751 170.60658312 464.19031141 168.65435791 464.75540161 C166.42751514 465.39763155 164.19873464 466.03280924 161.96972656 466.66748047 C152.87816234 469.26458627 143.81537747 471.96150631 134.74615479 474.63531494 C131.37146496 475.62949374 127.99614822 476.62151425 124.62060547 477.61279297 C112.16215319 481.271675 99.71191736 484.95451522 87.27880859 488.69873047 C75.52939382 492.23691588 63.77130306 495.74577704 52.01171875 499.25 C50.98176788 499.55698822 49.95181702 499.86397644 48.89065552 500.18026733 C36.87873982 503.75961092 24.86073005 507.31342438 12.82055664 510.79663086 C6.173289 512.72816516 -0.44022454 514.75920933 -7.05078125 516.8125 C-18.45307929 520.35217373 -29.90169555 523.72085805 -41.36328125 527.0625 C-53.81191103 530.69267372 -66.25483272 534.3385995 -78.67578125 538.0625 C-79.8963623 538.42585449 -81.11694336 538.78920898 -82.37451172 539.16357422 C-87.26195804 540.62592216 -92.13112674 542.09940399 -96.9453125 543.7890625 C-107.27865934 547.39696052 -118.6285986 549.79938571 -129.17578125 545.4375 C-131.0234375 544.48828125 -131.0234375 544.48828125 -133.11328125 543.125 C-133.91958984 542.61211426 -133.91958984 542.61211426 -134.7421875 542.08886719 C-139.03794377 539.22117213 -142.09204302 536.039327 -144.98828125 531.75 C-145.62479614 530.83371826 -145.62479614 530.83371826 -146.27416992 529.89892578 C-149.55814419 525.10590024 -152.56766099 520.16635437 -155.50732422 515.15698242 C-160.2615329 507.08514048 -165.45536744 499.29573715 -170.58691406 491.4609375 C-175.27792397 484.28186156 -179.89260318 477.05286073 -184.48828125 469.8125 C-187.35763106 465.2950797 -190.26321844 460.80209378 -193.17578125 456.3125 C-197.56553257 449.54330044 -201.91086272 442.74670062 -206.23828125 435.9375 C-212.66870249 425.82124459 -219.1012935 415.70845548 -225.6796875 405.6875 C-250.46240138 367.9104888 -250.46240138 367.9104888 -248.11328125 352.125 C-246.4669705 347.04694288 -243.90729596 342.64381149 -241.11328125 338.125 C-240.46117676 337.05064697 -240.46117676 337.05064697 -239.79589844 335.95458984 C-237.20574908 331.69421596 -234.57259207 327.46263546 -231.91796875 323.2421875 C-227.88170958 316.79750517 -223.99634321 310.26613037 -220.10653687 303.73257446 C-209.76331328 286.36555059 -209.76331328 286.36555059 -204.98828125 279.4375 C-199.61741023 271.59993779 -194.86918641 263.39310234 -190.08349609 255.19067383 C-186.37391518 248.85250197 -182.54150645 242.62871852 -178.54246521 236.4717865 C-174.2222607 229.79562115 -170.17137255 222.96246111 -166.11328125 216.125 C-161.29399165 208.00499903 -156.40742335 199.95245682 -151.27033997 192.02885437 C-148.16390341 187.230752 -145.20636585 182.3588761 -142.30078125 177.4375 C-138.43339094 170.93934538 -134.49047905 164.50151197 -130.42578125 158.125 C-125.35938539 150.16909571 -120.43683758 142.1298317 -115.55078125 134.0625 C-115.18340851 133.45598602 -114.81603577 132.84947205 -114.43753052 132.22457886 C-112.98773769 129.83052857 -111.53834364 127.43623762 -110.08955383 125.0415802 C-107.19086716 120.25071601 -104.28267137 115.46577377 -101.36328125 110.6875 C-100.93490967 109.98625 -100.50653809 109.285 -100.06518555 108.5625 C-97.75082983 104.78068489 -95.42251521 101.00789059 -93.08203125 97.2421875 C-92.00905626 95.51566124 -90.93614076 93.78909802 -89.86328125 92.0625 C-89.32558105 91.19729736 -88.78788086 90.33209473 -88.23388672 89.44067383 C-83.91085874 82.46265295 -79.69224313 75.42522814 -75.48828125 68.375 C-70.95751152 60.78289936 -66.34003493 53.27958443 -61.47631836 45.89697266 C-56.02359029 37.56106546 -50.92089923 29.00576318 -45.77392578 20.47924805 C-45.41445358 19.88394791 -45.05498138 19.28864777 -44.68461609 18.67530823 C-43.69748369 17.03953294 -42.71185491 15.40285055 -41.72631836 13.76611328 C-40.56243882 11.86043009 -39.3519212 9.98295993 -38.11328125 8.125 C-37.45328125 8.125 -36.79328125 8.125 -36.11328125 8.125 C-35.92765625 7.568125 -35.74203125 7.01125 -35.55078125 6.4375 C-28.4766285 -4.94265877 -10.85363567 -5.77790586 0 0 Z M-11.11328125 71.125 C-12.31249335 74.43290069 -12.31249335 74.43290069 -12.88671875 78.14453125 C-13.08018387 79.16667725 -13.08018387 79.16667725 -13.27755737 80.20947266 C-13.55358273 81.67890357 -13.82085564 83.15000053 -14.0802002 84.62246704 C-14.64092569 87.80344782 -15.24485481 90.97580273 -15.84606934 94.14933777 C-16.15559706 95.78517218 -16.46295429 97.42141871 -16.76818848 99.05805969 C-18.13971857 106.38821902 -19.72591177 113.662298 -21.36328125 120.9375 C-24.64027814 135.67304682 -27.66982148 150.45702977 -30.67578125 165.25 C-30.91544617 166.42939148 -31.15511108 167.60878296 -31.40203857 168.82391357 C-33.60998769 179.69832013 -35.81037875 190.57421983 -37.9765625 201.45703125 C-38.17835869 202.47020416 -38.17835869 202.47020416 -38.38423157 203.50384521 C-38.95973156 206.39590709 -39.53257497 209.28844217 -40.09985352 212.18212891 C-41.47027323 219.11628521 -42.95639829 226.02153248 -44.46875 232.92578125 C-46.89570525 244.01535461 -49.17575802 255.1315265 -51.42153931 266.25900269 C-54.51926321 281.59888817 -57.6636183 296.91735898 -61.13427734 312.17773438 C-63.01235615 320.49666898 -64.65965342 328.85059988 -66.20239258 337.23803711 C-67.48651045 344.14300198 -68.94580195 351.00049959 -70.453125 357.859375 C-73.17262717 370.24902842 -75.65671712 382.68096731 -78.11328125 395.125 C-80.70404212 408.24882302 -83.34861105 421.35277082 -86.22015381 434.41830444 C-88.72284713 445.83719373 -91.03877878 457.29377099 -93.36328125 468.75 C-93.81366406 470.96356975 -94.26418441 473.17711153 -94.71484375 475.390625 C-96.41774972 483.75706424 -96.41774972 483.75706424 -98.11328125 492.125 C-98.42504303 493.41124771 -98.42504303 493.41124771 -98.74310303 494.72348022 C-99.29777857 498.32192066 -98.06585018 500.13106097 -96.11328125 503.125 C-93.18611843 505.71762993 -91.75360559 506.16010717 -87.8359375 505.9453125 C-81.31455105 505.00585974 -75.03823294 502.93775979 -68.73828125 501.0625 C-67.3497925 500.65395092 -65.96120039 500.245753 -64.57250977 499.83789062 C-53.92339626 496.70081358 -43.31132039 493.44523794 -32.70703125 490.16015625 C-16.31932929 485.08977748 0.10152813 480.13107212 16.63671875 475.5625 C25.82616404 473.02312989 34.93924113 470.29079295 44.04101562 467.45458984 C54.37298559 464.25046719 64.75165025 461.21423183 75.13671875 458.1875 C92.0783244 453.2470915 108.99869491 448.24611484 125.88671875 443.125 C127.07974609 442.76390137 128.27277344 442.40280273 129.50195312 442.03076172 C133.02728217 440.96203339 136.5510469 439.88831622 140.07421875 438.8125 C141.10732178 438.49893555 142.1404248 438.18537109 143.20483398 437.86230469 C155.14881175 434.80003749 155.14881175 434.80003749 165.51171875 428.75 C167.11074887 425.69730613 167.62905273 423.56922167 167.88671875 420.125 C166.86938494 416.73635954 166.86938494 416.73635954 165.16796875 413.28515625 C164.87241089 412.64114365 164.57685303 411.99713104 164.27233887 411.33360291 C163.32479309 409.27789434 162.35631205 407.23288706 161.38671875 405.1875 C160.76551507 403.84896169 160.14571132 402.50977275 159.52734375 401.16992188 C157.9749175 397.815347 156.40435544 394.46963255 154.82818604 391.12615967 C153.58406969 388.48169662 152.3504752 385.83239077 151.11709595 383.1829071 C148.11364612 376.73172561 145.07984475 370.29568411 142.01171875 363.875 C141.15357037 362.07425471 140.29549913 360.27347266 139.4375 358.47265625 C137.79182853 355.02080569 136.14287564 351.57054748 134.4921875 348.12109375 C130.6532356 340.0795424 126.92897422 332.01196379 123.40722656 323.82641602 C121.04576299 318.38208222 118.39555077 313.10879085 115.703125 307.8203125 C113.61921992 303.65250233 111.7552239 299.39266755 109.88671875 295.125 C107.55466442 289.8023766 105.15124224 284.55490995 102.51171875 279.375 C98.05502288 270.61423484 94.08687428 261.63337669 90.04296875 252.67675781 C83.80880847 238.91842942 77.23196599 225.31507124 70.72167969 211.68603516 C65.86608259 201.51712395 61.12589538 191.30251915 56.4765625 181.03759766 C49.04189259 164.62515851 41.26945194 148.37329372 33.4921875 132.12109375 C29.66247675 124.09970802 25.93406984 116.05286037 22.4050293 107.89453125 C19.68370009 101.61514456 16.80382552 95.41696065 13.87841797 89.23046875 C12.74978631 86.83427982 11.6327505 84.43282377 10.515625 82.03125 C9.70203556 80.29156721 8.8882358 78.55198275 8.07421875 76.8125 C7.6889502 75.98129639 7.30368164 75.15009277 6.90673828 74.29370117 C6.36122314 73.13318237 6.36122314 73.13318237 5.8046875 71.94921875 C5.48266357 71.25916748 5.16063965 70.56911621 4.82885742 69.8581543 C3.89406068 67.94331524 3.89406068 67.94331524 1.88671875 66.125 C-4.71359578 65.36758686 -6.64917822 65.88818755 -11.11328125 71.125 Z " fill="#123A50" transform="translate(248.11328125,2.875)"/>
<path d="M0 0 C-0.33 0.66 -0.66 1.32 -1 2 C-2.2375 1.9175 -3.475 1.835 -4.75 1.75 C-7.65599775 1.55626682 -8.68239921 1.75520509 -11.02246094 3.55883789 C-13.5354851 6.66102661 -14.11673643 9.6169096 -14.78125 13.44921875 C-14.92147583 14.18010208 -15.06170166 14.91098541 -15.20617676 15.66401672 C-15.65212116 18.0026946 -16.07691731 20.34458897 -16.5 22.6875 C-17.0669062 25.73421589 -17.6422802 28.77929972 -18.21875 31.82421875 C-18.35933838 32.57484589 -18.49992676 33.32547302 -18.64477539 34.09884644 C-20.16970764 42.12739997 -22.05915616 50.06333502 -24 58 C-25.81023595 54.91115873 -26.08853824 54.3609636 -25.1875 50.6875 C-24.795625 49.470625 -24.40375 48.25375 -24 47 C-23.835 45.824375 -23.67 44.64875 -23.5 43.4375 C-23 40 -23 40 -22.06640625 37.32421875 C-20.7993005 33.37437628 -20.10783287 29.46083846 -19.4375 25.375 C-18.02416448 16.93847413 -18.02416448 16.93847413 -17 13 C-16.03097958 9.22082038 -16.22307793 6.78749508 -17 3 C-16.5625 0.6875 -16.5625 0.6875 -16 -1 C-14.88625 -0.979375 -13.7725 -0.95875 -12.625 -0.9375 C-3.47884615 -1.09519231 -3.47884615 -1.09519231 0 0 Z " fill="#183647" transform="translate(251,68)"/>
<path d="M0 0 C4.78092613 3.18728409 7.20471349 8.61414046 9 14 C9 14.99 9 15.98 9 17 C9.33 16.34 9.66 15.68 10 15 C10.66 15 11.32 15 12 15 C12.33 15.99 12.66 16.98 13 18 C12.67 18.33 12.34 18.66 12 19 C11.95907063 21.33297433 11.95758277 23.66705225 12 26 C9.77872147 23.77872147 8.91405224 21.91509084 7.6171875 19.0625 C7.17246094 18.08539063 6.72773438 17.10828125 6.26953125 16.1015625 C5.80933594 15.07804687 5.34914063 14.05453125 4.875 13 C4.17310547 11.46472656 4.17310547 11.46472656 3.45703125 9.8984375 C0 2.2587008 0 2.2587008 0 0 Z " fill="#183748" transform="translate(392,371)"/>
<path d="M0 0 C-3 2 -3 2 -5.125 2.4375 C-5.74375 2.623125 -6.3625 2.80875 -7 3 C-7.33 3.99 -7.66 4.98 -8 6 C-8.99 6 -9.98 6 -11 6 C-11 5.34 -11 4.68 -11 4 C-12.1446875 4.5259375 -12.1446875 4.5259375 -13.3125 5.0625 C-16 6 -16 6 -19 5 C-16.29436762 2.29436762 -13.72856809 1.86048851 -10.0625 0.8125 C-8.81597656 0.44769531 -7.56945312 0.08289063 -6.28515625 -0.29296875 C-3 -1 -3 -1 0 0 Z " fill="#163547" transform="translate(393,441)"/>
<path d="M0 0 C-2.18307032 2.18307032 -3.47835047 2.64346336 -6.375 3.5625 C-7.53128906 3.93568359 -7.53128906 3.93568359 -8.7109375 4.31640625 C-9.46632813 4.54199219 -10.22171875 4.76757812 -11 5 C-11.67289062 5.23589844 -12.34578125 5.47179687 -13.0390625 5.71484375 C-15.5951023 6.08653878 -16.83334827 5.31546712 -19 4 C-16.21079611 3.1369594 -13.41913928 2.28427693 -10.625 1.4375 C-9.8309375 1.19064453 -9.036875 0.94378906 -8.21875 0.68945312 C-7.45820313 0.46064453 -6.69765625 0.23183594 -5.9140625 -0.00390625 C-5.2123291 -0.21861572 -4.5105957 -0.4333252 -3.78759766 -0.65454102 C-2 -1 -2 -1 0 0 Z " fill="#183544" transform="translate(289,472)"/>
<path d="M0 0 C0.33 0.66 0.66 1.32 1 2 C-0.77323943 6.9280826 -3.65886817 11.0121975 -7 15 C-8.0268343 16.6502694 -9.03567924 18.31243867 -10 20 C-10.66 19.67 -11.32 19.34 -12 19 C-8.04 12.73 -4.08 6.46 0 0 Z " fill="#1D3A49" transform="translate(22,317)"/>
<path d="M0 0 C-3.26651375 1.03502777 -6.53877363 2.05053935 -9.8125 3.0625 C-10.74126953 3.35705078 -11.67003906 3.65160156 -12.62695312 3.95507812 C-13.51962891 4.22900391 -14.41230469 4.50292969 -15.33203125 4.78515625 C-16.15421143 5.04176025 -16.9763916 5.29836426 -17.82348633 5.56274414 C-20 6 -20 6 -23 5 C-22.195625 4.87625 -21.39125 4.7525 -20.5625 4.625 C-19.716875 4.41875 -18.87125 4.2125 -18 4 C-17.67 3.34 -17.34 2.68 -17 2 C-14.8203125 1.40234375 -14.8203125 1.40234375 -12.125 0.9375 C-2.46783022 -0.76587834 -2.46783022 -0.76587834 0 0 Z " fill="#1B3949" transform="translate(320,496)"/>
<path d="M0 0 C2 1 2 1 3 3 C0.23208055 3.86478781 -2.53865626 4.71711674 -5.3125 5.5625 C-6.09818359 5.80935547 -6.88386719 6.05621094 -7.69335938 6.31054688 C-8.45068359 6.53935547 -9.20800781 6.76816406 -9.98828125 7.00390625 C-10.68477783 7.21861572 -11.38127441 7.4333252 -12.09887695 7.65454102 C-14 8 -14 8 -17 7 C-13.3125489 5.02764244 -10.13596022 3.62039403 -6 3 C-4.906875 2.814375 -3.81375 2.62875 -2.6875 2.4375 C-1.800625 2.293125 -0.91375 2.14875 0 2 C0 1.34 0 0.68 0 0 Z " fill="#193749" transform="translate(385,473)"/>
<path d="M0 0 C-7.18463616 3.13135691 -14.36133302 5.26751883 -22 7 C-21.67 6.01 -21.34 5.02 -21 4 C-18.21173206 2.92143514 -15.55533963 2.0464912 -12.6875 1.25 C-11.91470703 1.01667969 -11.14191406 0.78335937 -10.34570312 0.54296875 C-6.44232604 -0.5780355 -3.96079616 -1.26098364 0 0 Z " fill="#173343" transform="translate(361,451)"/>
<path d="M0 0 C2.88020456 2.88020456 4.07312294 6.2989031 5.6875 10 C6.18733398 11.10601562 6.18733398 11.10601562 6.69726562 12.234375 C7.52893164 14.12939778 8.27152467 16.06296531 9 18 C8.67 18.66 8.34 19.32 8 20 C5 15.25 5 15.25 5 13 C4.34 13 3.68 13 3 13 C2.690625 11.865625 2.38125 10.73125 2.0625 9.5625 C1.37075469 6.21224901 1.37075469 6.21224901 0 5 C-0.04063832 3.33382885 -0.042721 1.66611905 0 0 Z " fill="#1B3949" transform="translate(357,220)"/>
<path d="M0 0 C0.99 0.33 1.98 0.66 3 1 C3 1.66 3 2.32 3 3 C3.66 3 4.32 3 5 3 C5 3.99 5 4.98 5 6 C6.32 6.66 7.64 7.32 9 8 C9 9.32 9 10.64 9 12 C9.99 12 10.98 12 12 12 C12 12.66 12 13.32 12 14 C10.265625 13.875 10.265625 13.875 8 13 C5.859375 10.3125 5.859375 10.3125 3.75 7 C3.04359375 5.906875 2.3371875 4.81375 1.609375 3.6875 C0 1 0 1 0 0 Z " fill="#1A3849" transform="translate(50,451)"/>
<path d="M0 0 C0.33 0.66 0.66 1.32 1 2 C-0.65 2.66 -2.3 3.32 -4 4 C-4.66 3.01 -5.32 2.02 -6 1 C-6.33 1.66 -6.66 2.32 -7 3 C-8.98 3 -10.96 3 -13 3 C-9.65720955 -0.34279045 -4.48390398 -2.06949415 0 0 Z " fill="#133446" transform="translate(338,458)"/>
<path d="M0 0 C0.66 0 1.32 0 2 0 C4.31 5.28 6.62 10.56 9 16 C7.68 15.67 6.36 15.34 5 15 C3.953125 13.0390625 3.953125 13.0390625 3.25 10.625 C3.00765625 9.83351563 2.7653125 9.04203125 2.515625 8.2265625 C2 6 2 6 2 3 C1.34 3 0.68 3 0 3 C0 2.01 0 1.02 0 0 Z " fill="#1C3948" transform="translate(383,278)"/>
<path d="M0 0 C-0.85714286 8.57142857 -0.85714286 8.57142857 -3 12 C-4.125 10.4375 -4.125 10.4375 -5 8 C-4.25 4.3125 -4.25 4.3125 -3 1 C-1 0 -1 0 0 0 Z " fill="#173846" transform="translate(207,220)"/>
<path d="M0 0 C0.33 0.66 0.66 1.32 1 2 C0.00390625 4.6015625 0.00390625 4.6015625 -1.4375 7.625 C-1.91058594 8.62789063 -2.38367188 9.63078125 -2.87109375 10.6640625 C-3.24363281 11.43492187 -3.61617187 12.20578125 -4 13 C-4.99 13 -5.98 13 -7 13 C-5.35821735 8.22390502 -2.73453298 4.20617096 0 0 Z " fill="#1B3C48" transform="translate(31,302)"/>
<path d="M0 0 C-0.804375 0.28875 -1.60875 0.5775 -2.4375 0.875 C-5.1326468 1.73262568 -5.1326468 1.73262568 -6 4 C-9.3 4 -12.6 4 -16 4 C-12.88384645 2.44192322 -10.17063974 1.32086738 -6.875 0.3125 C-6.00617188 0.04050781 -5.13734375 -0.23148437 -4.2421875 -0.51171875 C-2 -1 -2 -1 0 0 Z " fill="#173544" transform="translate(208,496)"/>
<path d="M0 0 C0.33 1.32 0.66 2.64 1 4 C-3.455 6.97 -3.455 6.97 -8 10 C-8.66 9.67 -9.32 9.34 -10 9 C-10 8.34 -10 7.68 -10 7 C-9.16855469 6.61908203 -9.16855469 6.61908203 -8.3203125 6.23046875 C-7.59585937 5.88628906 -6.87140625 5.54210937 -6.125 5.1875 C-5.40570313 4.85105469 -4.68640625 4.51460938 -3.9453125 4.16796875 C-1.69457194 3.00532903 -1.69457194 3.00532903 0 0 Z " fill="#1C3947" transform="translate(414,429)"/>
<path d="M0 0 C1.29132785 3.87398355 0.41113572 6.81988786 -0.4375 10.6875 C-0.58509766 11.38939453 -0.73269531 12.09128906 -0.88476562 12.81445312 C-1.2495932 14.54444194 -1.62388689 16.27242963 -2 18 C-2.33 18 -2.66 18 -3 18 C-3.97264857 13.72034628 -4.07378951 11.80194743 -2 8 C-1.64456573 5.66993089 -1.3086247 3.33672984 -1 1 C-0.67 0.67 -0.34 0.34 0 0 Z " fill="#1B3745" transform="translate(173,379)"/>
<path d="M0 0 C-0.66 0 -1.32 0 -2 0 C-2.33 0.99 -2.66 1.98 -3 3 C-6.3 3 -9.6 3 -13 3 C-8.83099908 0.22066605 -4.8978425 -1.63261417 0 0 Z " fill="#173446" transform="translate(313,465)"/>
<path d="M0 0 C0.99 0.33 1.98 0.66 3 1 C2.38125 1.7425 1.7625 2.485 1.125 3.25 C-0.60437281 5.48801188 -1.86106661 7.43739987 -3 10 C-3.66 10 -4.32 10 -5 10 C-3.66511872 6.40608886 -2.03977277 3.24509304 0 0 Z " fill="#1A3B48" transform="translate(111,172)"/>
<path d="M0 0 C-8.41803279 3.72336066 -8.41803279 3.72336066 -11 4 C-11.99 3.34 -12.98 2.68 -14 2 C-12.42085985 1.46658816 -10.83645613 0.94874237 -9.25 0.4375 C-8.36828125 0.14746094 -7.4865625 -0.14257812 -6.578125 -0.44140625 C-3.92165684 -1.01697435 -2.52968894 -0.89248371 0 0 Z " fill="#193746" transform="translate(256,482)"/>
<path d="M0 0 C-3.16566573 2.11044382 -5.51197415 2.75552077 -9.1875 3.625 C-10.27417969 3.88539063 -11.36085938 4.14578125 -12.48046875 4.4140625 C-13.31191406 4.60742188 -14.14335937 4.80078125 -15 5 C-13.50120034 2.00240068 -11.19691136 1.69211326 -8.14453125 0.59765625 C-5.3765057 -0.17376071 -2.8540358 -0.21405269 0 0 Z " fill="#1D3847" transform="translate(414,467)"/>
<path d="M0 0 C0.33 0.66 0.66 1.32 1 2 C-0.14453125 4.3828125 -0.14453125 4.3828125 -1.8125 7.125 C-2.35519531 8.03507813 -2.89789063 8.94515625 -3.45703125 9.8828125 C-3.96621094 10.58148438 -4.47539063 11.28015625 -5 12 C-5.66 12 -6.32 12 -7 12 C-5.44298069 7.32894208 -2.91552627 3.91294315 0 0 Z " fill="#1A3848" transform="translate(127,147)"/>
<path d="M0 0 C1 4 1 4 0.00390625 5.921875 C-0.47175781 6.52515625 -0.94742188 7.1284375 -1.4375 7.75 C-1.91058594 8.36359375 -2.38367188 8.9771875 -2.87109375 9.609375 C-3.24363281 10.06828125 -3.61617187 10.5271875 -4 11 C-4.66 10.67 -5.32 10.34 -6 10 C-4.02 6.7 -2.04 3.4 0 0 Z " fill="#1C394A" transform="translate(138,128)"/>
<path d="M0 0 C-2.3129482 2.3129482 -3.47904875 2.49580975 -6.625 3.125 C-7.44226563 3.29257812 -8.25953125 3.46015625 -9.1015625 3.6328125 C-10.04128906 3.81457031 -10.04128906 3.81457031 -11 4 C-11 3.34 -11 2.68 -11 2 C-3.57142857 -1.57142857 -3.57142857 -1.57142857 0 0 Z " fill="#1B3848" transform="translate(253,515)"/>
<path d="M0 0 C0.66 0 1.32 0 2 0 C2 0.66 2 1.32 2 2 C2.66 2 3.32 2 4 2 C4.33 4.64 4.66 7.28 5 10 C3 9 3 9 2.1484375 6.93359375 C1.89320313 6.10988281 1.63796875 5.28617187 1.375 4.4375 C1.11460937 3.61121094 0.85421875 2.78492187 0.5859375 1.93359375 C0.39257812 1.29550781 0.19921875 0.65742187 0 0 Z " fill="#1B3747" transform="translate(275,121)"/>
<path d="M0 0 C2.5 1.8125 2.5 1.8125 5 4 C5 4.99 5 5.98 5 7 C5.66 7 6.32 7 7 7 C7 7.66 7 8.32 7 9 C3.17475764 7.549046 1.80909034 5.61818068 0 2 C0 1.34 0 0.68 0 0 Z " fill="#1A3849" transform="translate(6,381)"/>
<path d="M0 0 C0.66 0 1.32 0 2 0 C1.25 2.9375 1.25 2.9375 0 6 C-2.125 6.875 -2.125 6.875 -4 7 C-2.68 4.69 -1.36 2.38 0 0 Z " fill="#203B4B" transform="translate(87,211)"/>
</svg>
