<?xml version="1.0" encoding="UTF-8"?>
<svg version="1.1" xmlns="http://www.w3.org/2000/svg" width="180" height="180">
<path d="M0 0 C0.86237572 2.70545856 1.29148944 4.23161346 1 7 C-0.94420517 10.18335569 -3.56583909 12.63771601 -6.22680664 15.23022461 C-7.00706207 16.02128601 -7.7873175 16.81234741 -8.59121704 17.62738037 C-11.17806628 20.23926297 -13.79287007 22.82098843 -16.41015625 25.40234375 C-18.21456735 27.20706469 -20.01764589 29.01311888 -21.81944275 30.82044983 C-25.60105667 34.60483437 -29.39581418 38.37529687 -33.2019043 42.13500977 C-37.59972256 46.47960867 -41.97214748 50.84853936 -46.33166414 55.23154634 C-50.52887845 59.45033281 -54.74301989 63.65186864 -58.96505547 67.8458271 C-60.75896891 69.63069867 -62.54870181 71.41978203 -64.33418465 73.21308708 C-66.83088884 75.71560284 -69.34609689 78.19787196 -71.86743164 80.67553711 C-72.60484085 81.42194962 -73.34225006 82.16836212 -74.102005 82.93739319 C-79.20751617 87.89659268 -79.20751617 87.89659268 -83.50828552 88.45777893 C-84.74168419 88.23117836 -84.74168419 88.23117836 -86 88 C-87.1875 85.8125 -87.1875 85.8125 -88 83 C-85.94632728 78.6887438 -82.80317711 75.50010468 -79.4375 72.1875 C-78.94314453 71.68541016 -78.44878906 71.18332031 -77.93945312 70.66601562 C-74.25348639 67 -74.25348639 67 -72 67 C-71.731875 66.401875 -71.46375 65.80375 -71.1875 65.1875 C-70.00082594 63.00152146 -68.90400887 61.58667406 -67 60 C-66.34 60 -65.68 60 -65 60 C-64.74025391 59.41573242 -64.48050781 58.83146484 -64.21289062 58.22949219 C-62.915344 55.84438836 -61.50658878 54.24809363 -59.59375 52.328125 C-58.93246094 51.66425781 -58.27117187 51.00039062 -57.58984375 50.31640625 C-56.55537109 49.29353516 -56.55537109 49.29353516 -55.5 48.25 C-54.81035156 47.55261719 -54.12070313 46.85523438 -53.41015625 46.13671875 C-52.74886719 45.47800781 -52.08757812 44.81929687 -51.40625 44.140625 C-50.80103516 43.53766602 -50.19582031 42.93470703 -49.57226562 42.31347656 C-48 41 -48 41 -46 41 C-45.731875 40.401875 -45.46375 39.80375 -45.1875 39.1875 C-44.00082594 37.00152146 -42.90400887 35.58667406 -41 34 C-40.34 34 -39.68 34 -39 34 C-38.7525 33.42765625 -38.505 32.8553125 -38.25 32.265625 C-36.80683801 29.64989389 -35.11783778 27.85226544 -33 25.75 C-31.948125 24.69039062 -31.948125 24.69039062 -30.875 23.609375 C-29 22 -29 22 -27 22 C-26.731875 21.401875 -26.46375 20.80375 -26.1875 20.1875 C-25.00082594 18.00152146 -23.90400887 16.58667406 -22 15 C-21.34 15 -20.68 15 -20 15 C-19.62875 14.14148438 -19.62875 14.14148438 -19.25 13.265625 C-17.80683801 10.64989389 -16.11783778 8.85226544 -14 6.75 C-13.29875 6.04359375 -12.5975 5.3371875 -11.875 4.609375 C-10 3 -10 3 -8 3 C-7.67 2.01 -7.34 1.02 -7 0 C-3.86650268 -1.04449911 -3.01031744 -0.93423645 0 0 Z " fill="#E1E1E1" transform="translate(127,40)"/>
<path d="M0 0 C2.5 0.875 2.5 0.875 3.8125 3.4375 C4.1528125 4.6440625 4.1528125 4.6440625 4.5 5.875 C-0.4880436 11.72285229 -5.71795305 17.26580261 -11.13671875 22.71484375 C-11.93858109 23.52240616 -12.74044342 24.32996857 -13.56660461 25.16200256 C-15.24849992 26.8532798 -16.93180331 28.54315786 -18.61645508 30.23168945 C-21.19748827 32.82252621 -23.76766891 35.4238337 -26.33789062 38.02539062 C-27.97850869 39.67253063 -29.61976232 41.31903789 -31.26171875 42.96484375 C-32.02844406 43.74391586 -32.79516937 44.52298798 -33.58512878 45.32566833 C-34.30300064 46.04053909 -35.0208725 46.75540985 -35.76049805 47.49194336 C-36.38780319 48.12289413 -37.01510834 48.75384491 -37.66142273 49.40391541 C-39.6629677 51.0053939 -40.96424661 51.58478162 -43.5 51.875 C-45.75 50.75 -45.75 50.75 -47.5 48.875 C-47.75 46.1875 -47.75 46.1875 -47.5 43.875 C-46.015 43.38 -46.015 43.38 -44.5 42.875 C-44.5 42.215 -44.5 41.555 -44.5 40.875 C-43.84 40.875 -43.18 40.875 -42.5 40.875 C-42.17 39.885 -41.84 38.895 -41.5 37.875 C-40.84 37.875 -40.18 37.875 -39.5 37.875 C-39.5 37.215 -39.5 36.555 -39.5 35.875 C-38.84 35.875 -38.18 35.875 -37.5 35.875 C-37.5 35.215 -37.5 34.555 -37.5 33.875 C-36.84 33.875 -36.18 33.875 -35.5 33.875 C-35.17 32.885 -34.84 31.895 -34.5 30.875 C-33.84 30.875 -33.18 30.875 -32.5 30.875 C-32.5 30.215 -32.5 29.555 -32.5 28.875 C-31.84 28.875 -31.18 28.875 -30.5 28.875 C-30.231875 28.235625 -29.96375 27.59625 -29.6875 26.9375 C-28.5 24.875 -28.5 24.875 -25.5 23.875 C-25.5 23.215 -25.5 22.555 -25.5 21.875 C-24.84 21.875 -24.18 21.875 -23.5 21.875 C-23.231875 21.235625 -22.96375 20.59625 -22.6875 19.9375 C-21.5 17.875 -21.5 17.875 -18.5 16.875 C-18.5 16.215 -18.5 15.555 -18.5 14.875 C-17.84 14.875 -17.18 14.875 -16.5 14.875 C-16.17 13.885 -15.84 12.895 -15.5 11.875 C-14.84 11.875 -14.18 11.875 -13.5 11.875 C-13.5 11.215 -13.5 10.555 -13.5 9.875 C-12.84 9.875 -12.18 9.875 -11.5 9.875 C-11.5 9.215 -11.5 8.555 -11.5 7.875 C-10.84 7.875 -10.18 7.875 -9.5 7.875 C-9.17 6.885 -8.84 5.895 -8.5 4.875 C-7.84 4.875 -7.18 4.875 -6.5 4.875 C-6.5 4.215 -6.5 3.555 -6.5 2.875 C-5.84 2.875 -5.18 2.875 -4.5 2.875 C-4.5 2.215 -4.5 1.555 -4.5 0.875 C-2.5 -0.125 -2.5 -0.125 0 0 Z " fill="#E6E6E6" transform="translate(132.5,85.125)"/>
<path d="M0 0 C0.99 0.33 1.98 0.66 3 1 C-4 8 -11 15 -18 22 C-18.89267578 22.8971875 -19.78535156 23.794375 -20.70507812 24.71875 C-23.34634068 27.34427737 -26.11391765 29.6508632 -29 32 C-28.5694933 27.58993138 -25.5782946 25.16999427 -22.5625 22.25 C-22.05912109 21.74339844 -21.55574219 21.23679687 -21.03710938 20.71484375 C-17.26719382 17 -17.26719382 17 -15 17 C-14.731875 16.401875 -14.46375 15.80375 -14.1875 15.1875 C-13.00082594 13.00152146 -11.90400887 11.58667406 -10 10 C-9.34 10 -8.68 10 -8 10 C-7.690625 9.195625 -7.690625 9.195625 -7.375 8.375 C-5.42003056 4.9982346 -2.81776305 2.69525161 0 0 Z " fill="#C1C1C1" transform="translate(70,90)"/>
<path d="M0 0 C0 0.33 0 0.66 0 1 C-0.86963379 1.21769043 -1.73926758 1.43538086 -2.63525391 1.65966797 C-6.56203231 3.22388314 -8.9671439 5.45662762 -11.8359375 8.4453125 C-12.36015289 8.97518768 -12.88436829 9.50506287 -13.42446899 10.05099487 C-15.08433494 11.7331176 -16.72968962 13.42864985 -18.375 15.125 C-19.50297366 16.27305244 -20.63187101 17.42019813 -21.76171875 18.56640625 C-24.51861187 21.36722445 -27.26258254 24.18014931 -30 27 C-30.99 26.67 -31.98 26.34 -33 26 C-31.625 24.5 -31.625 24.5 -30 23 C-29.34 23 -28.68 23 -28 23 C-28 22.34 -28 21.68 -28 21 C-27.34 21 -26.68 21 -26 21 C-25.731875 20.360625 -25.46375 19.72125 -25.1875 19.0625 C-24 17 -24 17 -21 16 C-21 15.34 -21 14.68 -21 14 C-20.34 14 -19.68 14 -19 14 C-18.67 13.01 -18.34 12.02 -18 11 C-17.34 11 -16.68 11 -16 11 C-16 10.34 -16 9.68 -16 9 C-15.34 9 -14.68 9 -14 9 C-14 8.34 -14 7.68 -14 7 C-13.34 7 -12.68 7 -12 7 C-11.67 6.01 -11.34 5.02 -11 4 C-10.34 4 -9.68 4 -9 4 C-9 3.34 -9 2.68 -9 2 C-8.34 2 -7.68 2 -7 2 C-7 1.34 -7 0.68 -7 0 C-4.3333581 -1.33332095 -2.83319697 -0.67102033 0 0 Z " fill="#9E9E9E" transform="translate(135,86)"/>
<path d="M0 0 C0.66 0 1.32 0 2 0 C-0.72067888 6.43069554 -5.73699123 10.76482333 -10.9296875 15.1875 C-14.10858261 17.9705327 -17.05550248 20.97268849 -20 24 C-20.99 23.67 -21.98 23.34 -23 23 C-22.01 22.67 -21.02 22.34 -20 22 C-19.29848848 20.6846659 -18.63474075 19.34882408 -18 18 C-16.5 16.25 -16.5 16.25 -15 15 C-14.34 15 -13.68 15 -13 15 C-12.7525 14.42765625 -12.505 13.8553125 -12.25 13.265625 C-10.80683801 10.64989389 -9.11783778 8.85226544 -7 6.75 C-6.29875 6.04359375 -5.5975 5.3371875 -4.875 4.609375 C-3 3 -3 3 -1 3 C-0.67 2.01 -0.34 1.02 0 0 Z " fill="#AFAFAF" transform="translate(120,40)"/>
<path d="M0 0 C0.99 0.33 1.98 0.66 3 1 C0.62926591 3.40008604 -1.74735022 5.79426638 -4.125 8.1875 C-4.79015625 8.86103516 -5.4553125 9.53457031 -6.140625 10.22851562 C-9.94087153 14.04739081 -13.79699551 17.62843098 -18 21 C-18.66 20.67 -19.32 20.34 -20 20 C-18.37660195 18.29115995 -16.70680947 16.62553283 -15 15 C-14.34 15 -13.68 15 -13 15 C-12.731875 14.401875 -12.46375 13.80375 -12.1875 13.1875 C-11.00082594 11.00152146 -9.90400887 9.58667406 -8 8 C-7.34 8 -6.68 8 -6 8 C-5.7525 7.4225 -5.505 6.845 -5.25 6.25 C-3.83316683 3.6997003 -2.12372463 1.98214299 0 0 Z " fill="#A5A5A5" transform="translate(94,66)"/>
<path d="M0 0 C0.99 0.33 1.98 0.66 3 1 C0.54976242 3.50804718 -1.91147598 6.0050076 -4.375 8.5 C-5.42300781 9.57314453 -5.42300781 9.57314453 -6.4921875 10.66796875 C-7.1625 11.34472656 -7.8328125 12.02148438 -8.5234375 12.71875 C-9.14138184 13.34716797 -9.75932617 13.97558594 -10.39599609 14.62304688 C-12 16 -12 16 -14 16 C-14.33 17.32 -14.66 18.64 -15 20 C-15 18.35 -15 16.7 -15 15 C-14.01 14.67 -13.02 14.34 -12 14 C-12 13.34 -12 12.68 -12 12 C-11.34 12 -10.68 12 -10 12 C-9.67 11.01 -9.34 10.02 -9 9 C-8.34 9 -7.68 9 -7 9 C-7 8.34 -7 7.68 -7 7 C-6.34 7 -5.68 7 -5 7 C-5 6.34 -5 5.68 -5 5 C-4.34 5 -3.68 5 -3 5 C-2.67 4.01 -2.34 3.02 -2 2 C-1.34 2 -0.68 2 0 2 C0 1.34 0 0.68 0 0 Z " fill="#9F9F9F" transform="translate(100,114)"/>
<path d="M0 0 C0.99 0.33 1.98 0.66 3 1 C-0.96 4.96 -4.92 8.92 -9 13 C-9.99 12.67 -10.98 12.34 -12 12 C-10.625 10.5 -10.625 10.5 -9 9 C-8.34 9 -7.68 9 -7 9 C-7 8.34 -7 7.68 -7 7 C-6.34 7 -5.68 7 -5 7 C-4.731875 6.360625 -4.46375 5.72125 -4.1875 5.0625 C-3 3 -3 3 0 2 C0 1.34 0 0.68 0 0 Z " fill="#A6A6A6" transform="translate(114,100)"/>
<path d="M0 0 C0 4.05869456 -1.02186309 6.01574974 -3.875 8.88671875 C-4.57625 9.48097656 -5.2775 10.07523438 -6 10.6875 C-6.70125 11.28949219 -7.4025 11.89148438 -8.125 12.51171875 C-10 14 -10 14 -12 15 C-11.58685438 10.55073948 -8.49538473 8.15899896 -5.4375 5.25 C-4.91736328 4.74339844 -4.39722656 4.23679687 -3.86132812 3.71484375 C-2.58089916 2.46965595 -1.29132446 1.23388498 0 0 Z " fill="#9F9F9F" transform="translate(53,107)"/>
<path d="M0 0 C0.66 0 1.32 0 2 0 C0.33248852 3.94139078 -2.22710649 6.7892812 -5 10 C-6.32 9.67 -7.64 9.34 -9 9 C-8.0479279 7.99403703 -7.08812654 6.99538437 -6.125 6 C-5.32449219 5.1646875 -5.32449219 5.1646875 -4.5078125 4.3125 C-3 3 -3 3 -1 3 C-0.67 2.01 -0.34 1.02 0 0 Z " fill="#A8A8A8" transform="translate(120,40)"/>
<path d="M0 0 C0.99 0.33 1.98 0.66 3 1 C0.36 3.64 -2.28 6.28 -5 9 C-5.99 8.67 -6.98 8.34 -8 8 C-5.36 5.36 -2.72 2.72 0 0 Z " fill="#ABABAB" transform="translate(70,90)"/>
</svg>
