<?xml version="1.0" standalone="no"?>
<!DOCTYPE svg PUBLIC "-//W3C//DTD SVG 20010904//EN"
 "http://www.w3.org/TR/2001/REC-SVG-20010904/DTD/svg10.dtd">
<svg version="1.0" xmlns="http://www.w3.org/2000/svg"
 width="944.000000pt" height="1280.000000pt" viewBox="0 0 944.000000 1280.000000"
 preserveAspectRatio="xMidYMid meet">

<g transform="translate(0.000000,1280.000000) scale(0.100000,-0.100000)"
fill="#000000" stroke="none">
<path d="M4635 9685 c-5 -2 -62 -15 -125 -30 -63 -14 -149 -37 -190 -50 -76
-24 -184 -43 -145 -25 19 8 19 9 -2 9 -13 1 -23 -2 -23 -7 0 -4 -22 -12 -49
-19 -27 -6 -78 -25 -114 -42 -37 -17 -69 -31 -73 -31 -7 0 -111 -51 -168 -82
-17 -9 -39 -17 -49 -18 -10 0 -30 -8 -44 -17 -15 -10 -24 -12 -20 -5 16 25
-10 11 -48 -28 -22 -21 -43 -39 -47 -40 -4 0 -34 -18 -67 -40 -64 -42 -77 -47
-83 -28 -5 13 -116 -81 -117 -99 -1 -15 -17 -17 -26 -3 -3 6 -11 10 -17 10 -7
0 -7 -4 1 -14 8 -10 8 -16 -3 -25 -11 -10 -19 -7 -36 11 l-21 23 6 -27 c5 -18
3 -28 -4 -28 -6 0 -11 -6 -11 -14 0 -7 -10 -17 -22 -21 -20 -6 -20 -8 -5 -12
9 -2 17 -11 17 -20 0 -10 -6 -13 -17 -9 -16 6 -16 6 0 -12 23 -25 21 -32 -5
-32 -12 0 -18 -3 -15 -7 4 -3 2 -12 -5 -20 -9 -11 -7 -15 10 -20 17 -4 20 -9
13 -22 -8 -13 -24 -15 -83 -13 -75 3 -78 -9 -6 -22 21 -4 40 -12 44 -17 4 -7
-1 -9 -15 -4 -12 4 -21 2 -21 -4 0 -6 -7 -11 -15 -11 -8 0 -15 -4 -15 -8 0 -5
-12 -14 -26 -20 -14 -7 -22 -16 -19 -22 4 -6 14 -5 27 3 16 9 22 9 25 0 3 -9
14 -11 31 -6 24 6 26 5 13 -10 -8 -10 -28 -17 -51 -17 -21 0 -43 -6 -49 -14
-7 -8 -23 -17 -36 -20 -21 -5 -24 -11 -21 -37 1 -17 9 -35 17 -40 11 -8 10
-13 -9 -29 -18 -15 -25 -33 -28 -67 -2 -27 -4 -55 -5 -63 -2 -24 8 -90 14 -96
6 -7 -1 -100 -10 -124 -3 -8 -7 -31 -10 -50 -2 -19 -9 -48 -15 -63 -9 -22 -8
-31 1 -37 8 -5 9 -10 3 -14 -10 -6 -9 -87 1 -103 3 -5 2 -15 -3 -23 -5 -8 -5
-19 -1 -25 5 -5 11 -30 15 -55 14 -98 18 -120 25 -120 5 0 14 -19 20 -42 7
-24 19 -59 26 -78 29 -76 39 -110 32 -116 -4 -4 -25 0 -47 9 -22 8 -40 12 -40
7 0 -4 10 -10 22 -14 16 -4 20 -8 12 -16 -7 -7 -38 -2 -103 20 -115 37 -150
38 -190 5 -34 -29 -76 -112 -84 -168 -9 -58 9 -143 47 -224 48 -99 87 -156
165 -235 73 -75 107 -91 71 -33 -23 38 -18 45 12 18 18 -16 22 -16 68 0 26 9
68 20 93 23 37 5 48 3 66 -15 16 -16 19 -26 12 -45 -11 -29 -46 -36 -148 -31
-78 3 -84 -4 -35 -40 22 -16 46 -21 130 -23 56 -2 102 -5 102 -6 0 -31 46
-198 68 -246 54 -120 153 -261 263 -375 l67 -70 16 -130 c8 -71 18 -172 22
-224 7 -110 28 -164 100 -261 71 -97 224 -244 359 -344 66 -50 151 -116 188
-149 52 -46 81 -62 125 -74 31 -8 96 -35 144 -60 l87 -45 105 63 c58 35 132
79 163 98 180 104 240 141 259 158 11 10 29 23 40 30 10 7 57 36 103 64 261
160 344 221 451 330 69 70 75 78 102 133 21 44 21 46 4 85 -20 44 -17 126 9
265 13 66 16 71 77 126 146 133 195 187 259 290 39 62 96 179 101 206 7 43 26
51 103 46 41 -2 82 -2 91 2 15 6 13 11 -14 39 -25 26 -31 40 -29 69 2 41 9 45
47 23 26 -15 80 -20 80 -7 0 4 11 12 25 19 31 14 32 1 3 -27 -44 -41 -9 -29
49 18 75 59 74 59 152 162 72 95 101 168 101 257 0 66 -23 152 -51 187 -24 31
-76 47 -103 33 -31 -16 -76 -26 -76 -18 0 5 15 16 33 25 l32 16 -45 -1 c-25 0
-70 -8 -100 -19 -30 -10 -56 -17 -58 -16 -8 9 13 36 24 32 10 -4 14 3 14 23 0
17 6 31 16 35 11 4 14 13 11 27 -4 16 -3 18 8 9 10 -8 14 -4 19 20 3 16 9 44
12 60 4 17 10 30 15 30 5 0 9 13 9 29 0 18 6 31 16 35 9 4 18 5 19 4 1 -2 7
-12 13 -23 10 -17 11 -13 12 26 0 44 18 77 33 62 4 -3 7 7 8 23 0 16 4 38 9
49 7 17 9 16 10 -10 l1 -30 20 38 c11 20 23 37 28 37 11 0 50 193 63 310 10
87 1 176 -27 265 -7 22 -17 58 -21 80 -16 92 -105 216 -197 278 -25 16 -37 47
-19 47 14 0 207 -97 222 -111 8 -8 31 -25 50 -38 l35 -24 -33 35 c-18 19 -30
37 -27 39 6 7 -149 80 -232 109 -73 26 -110 58 -53 45 19 -4 62 -17 95 -27 71
-24 135 -33 135 -19 0 5 -8 12 -17 15 -29 8 -185 43 -227 51 -41 7 -105 62
-311 265 -49 49 -107 100 -127 114 -43 29 -180 96 -196 96 -6 0 -17 6 -24 14
-8 7 -58 28 -111 46 -53 18 -97 36 -97 40 0 5 -15 11 -32 15 -18 4 -47 15 -65
25 -33 19 -178 53 -273 65 -30 3 -77 10 -105 15 -168 29 -204 31 -350 22 -84
-5 -154 -5 -159 -1 -10 9 -32 11 -51 4z m448 -289 c32 -7 61 -16 64 -19 7 -8
-55 2 -127 18 -40 10 -47 14 -25 14 17 0 56 -5 88 -13z m127 -8 c10 -6 7 -7
-10 -2 -14 3 -32 11 -40 16 -10 6 -7 7 10 2 14 -3 32 -11 40 -16z m-1870 -264
c0 -8 -4 -12 -10 -9 -5 3 -10 10 -10 16 0 5 5 9 10 9 6 0 10 -7 10 -16z m-360
-428 c0 -3 -4 -8 -10 -11 -5 -3 -10 -1 -10 4 0 6 5 11 10 11 6 0 10 -2 10 -4z
m3751 -38 c17 -24 18 -29 6 -19 -18 14 -42 51 -33 51 3 0 15 -15 27 -32z
m-3007 -502 l27 -14 -46 -6 c-25 -4 -49 -4 -55 -1 -18 11 -10 24 18 28 15 2
28 5 28 6 1 0 14 -5 28 -13z m146 -5 c0 -16 -19 -23 -40 -16 -30 10 -24 25 10
25 17 0 30 -4 30 -9z m-62 -39 c3 -34 -8 -41 -28 -18 -6 8 -18 12 -27 9 -13
-5 -13 -2 2 21 24 36 49 30 53 -12z m2164 -26 c10 -15 -30 -24 -66 -15 -38 11
-40 14 -27 38 11 19 13 19 49 4 20 -8 40 -20 44 -27z m-2354 5 c3 -8 -1 -12
-9 -9 -7 2 -15 10 -17 17 -3 8 1 12 9 9 7 -2 15 -10 17 -17z m2197 9 c-3 -5
-12 -7 -20 -3 -21 7 -19 13 6 13 11 0 18 -4 14 -10z m945 -179 c0 -6 -4 -13
-10 -16 -5 -3 -10 1 -10 9 0 9 5 16 10 16 6 0 10 -4 10 -9z m-3664 -278 c-11
-11 -19 6 -11 24 8 17 8 17 12 0 3 -10 2 -21 -1 -24z m1664 2 c0 -29 -41 -45
-65 -25 -21 17 -19 29 8 40 40 16 57 12 57 -15z m90 -41 c8 -13 17 -24 22 -24
4 0 8 -7 8 -15 0 -18 -5 -18 -31 -5 -10 6 -19 17 -19 25 0 7 -10 15 -22 17
-33 5 -33 25 0 26 21 0 33 -6 42 -24z m-1765 -32 c-8 -20 -17 -59 -21 -87 -5
-34 -9 -42 -12 -26 -4 23 15 137 25 154 2 4 8 5 13 2 5 -3 2 -22 -5 -43z
m2675 28 c0 -12 -49 -45 -56 -37 -3 3 -1 15 6 26 11 21 50 30 50 11z m115 -50
c-3 -5 -10 -10 -16 -10 -5 0 -9 5 -9 10 0 6 7 10 16 10 8 0 12 -4 9 -10z
m-1081 -54 c3 -11 -2 -28 -10 -37 -14 -16 -12 -18 18 -28 18 -5 50 -13 70 -17
21 -3 42 -12 48 -19 6 -8 18 -11 26 -8 8 3 14 -1 14 -11 0 -9 4 -16 9 -16 5 0
12 -8 15 -18 4 -10 20 -34 36 -52 32 -36 51 -101 31 -108 -12 -4 -16 -23 -3
-20 61 13 202 -150 173 -200 -6 -10 -11 -12 -11 -4 0 6 -5 12 -11 12 -5 0 -7
-5 -3 -12 4 -6 3 -9 -2 -7 -5 3 -20 10 -34 16 -107 46 -135 61 -161 87 -15 16
-27 32 -24 35 2 4 -17 8 -43 9 -47 2 -65 15 -57 43 5 13 -7 15 -81 15 -77 -1
-88 1 -104 22 -10 12 -23 22 -30 22 -6 0 -9 4 -6 9 3 4 -6 19 -21 32 -18 16
-27 20 -30 12 -3 -7 -19 -13 -37 -13 -18 0 -37 -5 -44 -12 -8 -8 -15 -8 -27 2
-13 10 -15 10 -15 -6 0 -17 -1 -17 -14 1 -14 19 -15 19 -34 2 -14 -13 -22 -15
-27 -7 -9 15 14 60 32 60 7 0 13 4 13 10 0 5 9 14 21 21 17 9 25 7 43 -10 28
-27 53 -28 26 -1 -11 11 -24 20 -30 20 -12 0 -13 13 -1 26 5 5 14 26 21 47 18
58 111 106 188 98 12 -1 22 2 22 8 0 6 -4 11 -10 11 -5 0 -10 6 -10 14 0 21
68 -4 74 -28z m1206 20 c0 -15 -42 -26 -98 -26 -44 0 -32 16 18 25 19 3 36 8
39 11 10 10 41 3 41 -10z m420 -24 c0 -15 4 -42 9 -59 6 -20 6 -35 0 -38 -5
-4 -9 -53 -9 -111 0 -57 -4 -104 -9 -104 -4 0 -9 29 -9 65 -1 36 -4 70 -7 75
-8 14 6 90 16 84 5 -3 9 2 9 11 0 11 -5 15 -14 12 -21 -8 -28 21 -14 59 15 41
28 44 28 6z m-309 -10 c86 -33 89 -36 94 -136 3 -49 10 -95 16 -103 7 -7 9
-16 6 -20 -8 -8 -67 17 -67 28 0 5 -9 9 -20 9 -26 0 -25 -15 2 -34 22 -16 22
-16 3 -31 -11 -8 -29 -12 -40 -9 -47 14 -74 15 -94 4 -35 -18 -91 6 -91 40 0
14 -5 31 -12 38 -9 9 -9 12 0 12 17 0 15 25 -3 40 -33 28 -7 68 62 97 22 9 39
25 46 43 10 25 18 32 47 39 3 0 26 -7 51 -17z m-1203 -15 c3 -14 -1 -18 -20
-15 -12 2 -24 11 -26 21 -3 14 1 18 20 15 12 -2 24 -11 26 -21z m-1546 -9 c24
-12 46 -27 50 -34 4 -6 22 -17 40 -24 82 -33 83 -81 2 -78 -24 0 -49 -3 -56
-9 -17 -14 -78 11 -78 32 0 9 -9 15 -25 15 -22 0 -25 4 -25 34 0 46 16 86 34
86 9 0 35 -10 58 -22z m3307 -205 c18 -69 23 -113 14 -113 -12 0 -43 69 -33
75 4 3 4 21 0 40 -11 47 7 45 19 -2z m-2288 -86 c31 -24 28 -44 -12 -85 -27
-28 -51 -43 -76 -48 -21 -3 -62 -12 -90 -19 -52 -13 -53 -13 -53 9 0 31 95
118 160 148 24 10 54 8 71 -5z m1770 -15 c-7 -2 -18 1 -23 6 -8 8 -4 9 13 5
13 -4 18 -8 10 -11z m127 0 c3 -9 -2 -13 -14 -10 -9 1 -19 9 -22 16 -3 9 2 13
14 10 9 -1 19 -9 22 -16z m-535 1 c-13 -2 -33 -2 -45 0 -13 2 -3 4 22 4 25 0
35 -2 23 -4z m647 -85 c-19 -65 -21 -67 -15 -15 5 51 13 72 23 63 3 -3 -1 -25
-8 -48z m-675 -18 c4 -6 -5 -5 -19 2 -14 6 -26 15 -26 20 0 10 36 -7 45 -22z
m-1866 -1 c-22 -13 -31 -11 -17 5 7 8 17 12 22 9 4 -3 2 -9 -5 -14z m2427 -10
c3 -6 1 -16 -5 -22 -6 -6 -11 -26 -11 -44 0 -18 -4 -33 -10 -33 -5 0 -10 5
-10 10 0 6 -4 10 -10 10 -5 0 -10 -7 -10 -15 0 -8 -4 -15 -9 -15 -14 0 -25 21
-15 29 5 3 15 19 22 34 21 49 44 68 58 46z m-2371 -21 c14 -12 25 -25 25 -30
0 -15 -58 -8 -64 7 -3 10 -19 15 -43 15 -31 1 -35 3 -20 11 9 5 22 7 27 4 6
-3 10 -1 10 4 0 19 39 12 65 -11z m1795 -2 c0 -3 -4 -8 -10 -11 -5 -3 -10 -1
-10 4 0 6 5 11 10 11 6 0 10 -2 10 -4z m-1690 -51 c0 -5 -5 -3 -10 5 -5 8 -10
20 -10 25 0 6 5 3 10 -5 5 -8 10 -19 10 -25z m-185 15 c-3 -5 -17 -10 -31 -10
-13 0 -24 5 -24 10 0 6 14 10 31 10 17 0 28 -4 24 -10z m189 -72 c6 -4 35 -5
64 -2 44 4 53 2 59 -13 4 -10 11 -21 17 -25 6 -4 11 -41 11 -85 l0 -77 -107
-3 c-64 -2 -109 1 -113 7 -3 6 -15 10 -26 10 -22 0 -23 3 -7 47 7 18 19 33 28
34 13 0 13 1 0 6 -18 7 -44 32 -39 38 7 7 59 -7 59 -16 0 -5 9 -9 20 -9 26 0
26 16 1 23 -14 3 -18 11 -14 26 3 12 12 21 19 21 17 0 19 17 2 22 -7 3 -8 9
-3 18 7 12 9 12 13 0 3 -8 10 -18 16 -22z m2526 2 c-8 -5 -22 -10 -30 -10 -13
0 -13 1 0 10 8 5 22 10 30 10 13 0 13 -1 0 -10z m65 -60 c3 -5 1 -10 -4 -10
-6 0 -11 5 -11 10 0 6 2 10 4 10 3 0 8 -4 11 -10z m-1304 -113 c11 -10 19 -27
19 -37 0 -21 -15 -27 -25 -10 -4 6 -10 8 -15 5 -5 -3 -10 3 -12 12 -5 25 4 81
10 63 3 -8 13 -23 23 -33z m-362 -67 c30 -17 59 -30 66 -30 6 0 22 -11 35 -25
19 -20 20 -25 7 -25 -9 0 -18 4 -21 9 -4 5 -41 24 -84 41 -89 37 -86 35 -77
49 9 15 14 14 74 -19z m-279 -30 c0 -5 -4 -10 -10 -10 -5 0 -10 5 -10 10 0 6
5 10 10 10 6 0 10 -4 10 -10z m354 -269 c3 -5 -9 -11 -27 -13 -40 -4 -67 1
-67 13 0 12 87 12 94 0z"/>
<path d="M4940 7317 c0 -8 7 -21 16 -28 14 -11 15 -10 12 11 -3 26 -28 41 -28
17z"/>
<path d="M4830 7295 c0 -8 5 -15 10 -15 6 0 10 7 10 15 0 8 -4 15 -10 15 -5 0
-10 -7 -10 -15z"/>
<path d="M3088 9033 c7 -3 16 -2 19 1 4 3 -2 6 -13 5 -11 0 -14 -3 -6 -6z"/>
<path d="M2988 8823 c7 -3 16 -2 19 1 4 3 -2 6 -13 5 -11 0 -14 -3 -6 -6z"/>
<path d="M4395 4701 c-118 -35 -182 -63 -274 -120 -42 -26 -92 -54 -111 -63
-125 -57 -335 -126 -407 -135 -24 -3 -43 -6 -43 -8 0 -1 18 -38 40 -81 23 -43
38 -67 35 -51 -3 15 -7 39 -10 53 -4 16 -2 23 5 19 5 -3 10 -13 10 -21 0 -20
18 -18 23 4 4 15 5 15 6 -1 1 -16 8 -18 54 -15 28 2 61 8 72 12 11 5 -2 -6
-29 -23 -64 -42 -53 -51 15 -12 30 16 83 37 118 46 78 20 129 45 177 87 19 17
39 27 42 22 4 -5 29 -29 57 -54 27 -25 50 -52 50 -60 0 -9 7 -14 19 -12 31 6
90 -27 109 -60 18 -31 17 -31 -6 -57 -31 -33 -50 -72 -71 -144 -9 -31 -30 -81
-47 -110 -27 -47 -66 -127 -136 -276 -105 -226 -119 -340 -153 -1251 -6 -157
-16 -368 -21 -470 -5 -102 -14 -331 -19 -510 -5 -179 -14 -422 -19 -540 -6
-118 -13 -362 -17 -543 l-7 -327 791 0 792 0 -4 27 c-2 16 -7 40 -11 56 -5 17
-3 27 4 27 6 0 11 7 11 15 0 11 11 15 40 15 22 0 40 5 40 10 0 6 -21 10 -46
10 -41 0 -45 2 -40 20 13 45 15 59 21 162 3 58 2 109 -3 111 -4 3 -9 34 -10
68 -2 35 -6 68 -11 73 -12 17 -39 143 -46 220 -3 38 -10 76 -14 85 -5 9 -23
106 -41 216 -18 110 -36 209 -41 220 -5 11 -11 55 -13 98 -3 43 -8 82 -10 86
-3 4 -12 52 -21 107 -8 54 -20 122 -25 149 -5 28 -14 79 -20 115 -7 36 -18 92
-25 125 -13 54 -29 148 -55 315 -5 30 -15 93 -24 140 -8 47 -22 148 -31 225
-24 210 -42 323 -81 505 -102 480 -150 643 -235 809 l-53 104 12 56 c10 47 19
62 59 99 26 23 52 42 58 42 5 0 21 18 35 40 l26 40 36 -25 c20 -14 44 -25 53
-25 16 0 136 -58 145 -70 3 -3 32 -19 65 -34 33 -15 68 -32 77 -37 27 -14 46
-11 77 12 15 11 45 26 67 34 21 8 34 14 28 15 -7 0 -11 8 -10 17 1 18 -9 22
-144 58 -107 28 -347 134 -445 196 -33 21 -111 64 -174 95 -113 57 -113 57
-163 45 -58 -13 -126 -15 -112 -3 5 5 27 14 49 20 44 13 91 42 65 41 -8 -1
-56 -13 -105 -28z m-131 -367 c4 -9 4 -19 2 -22 -10 -9 -36 8 -36 23 0 20 26
19 34 -1z"/>
<path d="M3480 4526 c0 -3 11 -26 25 -52 14 -26 25 -42 25 -35 0 14 -38 91
-45 91 -3 0 -5 -2 -5 -4z"/>
<path d="M3648 4193 c6 -2 18 -2 25 0 6 3 1 5 -13 5 -14 0 -19 -2 -12 -5z"/>
<path d="M440 3731 c0 -6 11 -17 25 -23 25 -11 34 -28 15 -28 -5 0 -10 5 -10
10 0 6 -11 10 -25 10 -20 0 -25 -5 -25 -24 0 -14 -5 -28 -11 -31 -12 -8 -7
-30 7 -31 5 0 22 -6 37 -12 16 -7 37 -12 47 -12 10 0 20 -7 24 -15 3 -8 12
-15 21 -15 23 0 18 -24 -12 -53 -27 -25 -29 -25 -51 -9 -20 15 -22 22 -13 45
8 21 8 27 -3 27 -8 0 -19 -13 -25 -30 -16 -46 -30 -36 -26 18 l5 47 -45 -50
c-47 -53 -51 -68 -17 -73 11 -2 26 -10 32 -18 7 -8 22 -14 34 -14 11 0 42 -11
68 -24 27 -13 50 -21 53 -16 7 11 -5 40 -16 40 -5 0 -9 5 -9 11 0 6 9 9 20 6
25 -6 26 -4 34 58 3 28 10 72 15 98 7 38 6 50 -5 54 -8 3 -12 9 -9 13 8 12
-17 27 -55 33 -19 3 -45 8 -57 12 -15 5 -23 3 -23 -4z m87 -49 c9 -6 7 -17 -9
-42 -17 -28 -23 -31 -26 -17 -2 10 2 24 8 32 6 8 9 19 5 25 -7 12 5 13 22 2z
m33 -53 c-11 -36 -20 -49 -20 -28 0 25 12 59 20 59 5 0 5 -14 0 -31z m-160
-114 c0 -17 -2 -18 -25 -9 -13 5 -14 8 -3 15 19 13 28 11 28 -6z"/>
<path d="M1322 3712 c-17 -11 1 -105 34 -174 14 -29 22 -42 19 -28 -3 14 -10
67 -17 118 -11 93 -13 98 -36 84z"/>
<path d="M570 3426 c0 -22 -9 -45 -25 -64 -30 -36 -31 -49 -5 -57 26 -8 36
-50 22 -88 -13 -35 -6 -53 13 -37 16 13 19 266 4 276 -5 3 -9 -10 -9 -30z"/>
<path d="M1381 3424 c0 -11 3 -14 6 -6 3 7 2 16 -1 19 -3 4 -6 -2 -5 -13z"/>
<path d="M1392 3310 c0 -19 2 -27 5 -17 2 9 2 25 0 35 -3 9 -5 1 -5 -18z"/>
<path d="M8162 3274 c2 -18 9 -29 18 -29 8 0 26 -11 39 -24 18 -19 22 -31 17
-59 -3 -20 -10 -40 -16 -46 -7 -7 -7 1 1 22 13 38 4 57 -10 21 l-10 -24 0 28
c-1 15 -6 27 -12 27 -8 0 -9 -12 -4 -37 10 -45 13 -140 14 -365 1 -105 5 -168
11 -168 6 0 10 15 10 34 0 19 5 38 10 41 6 3 10 28 10 55 0 31 13 88 36 152
19 57 36 110 37 118 1 8 5 17 9 20 12 10 21 80 9 80 -6 0 -11 10 -11 21 0 12
-8 28 -17 36 -12 9 -14 16 -7 19 7 3 9 17 5 37 -6 30 -11 33 -63 43 -30 6 -61
15 -67 19 -9 5 -12 -1 -9 -21z m118 -164 c0 -5 -6 -10 -14 -10 -8 0 -18 5 -21
10 -3 6 3 10 14 10 12 0 21 -4 21 -10z"/>
<path d="M1395 3120 c-20 -61 -16 -128 16 -243 11 -39 30 -121 43 -182 13 -60
40 -164 60 -230 37 -122 41 -131 70 -198 9 -21 16 -42 16 -48 0 -6 7 -17 16
-26 8 -9 13 -21 10 -28 -2 -7 4 -21 15 -31 10 -9 19 -25 19 -36 0 -10 5 -18
10 -18 6 0 10 -7 10 -15 0 -25 62 -145 75 -145 14 0 24 -27 31 -80 2 -19 14
-54 26 -78 27 -53 17 -76 -35 -80 -28 -3 -37 1 -42 17 -3 12 -4 25 0 30 3 6
-12 15 -33 21 -36 9 -40 14 -46 50 -4 26 -11 40 -21 40 -8 0 -15 6 -15 13 0 7
-11 23 -24 34 -31 27 -35 18 -30 -76 3 -69 6 -75 39 -105 28 -26 35 -40 35
-69 0 -30 -4 -37 -20 -37 -11 0 -20 -3 -20 -8 0 -4 9 -13 20 -20 11 -7 20 -21
20 -32 0 -13 -7 -20 -20 -20 -11 0 -20 -3 -20 -8 0 -4 9 -13 20 -20 11 -7 20
-21 20 -32 0 -11 5 -20 11 -20 15 0 69 -52 69 -67 0 -7 4 -13 8 -13 5 0 19 -9
32 -20 l23 -20 -23 -20 c-13 -11 -26 -20 -29 -20 -3 0 -17 -18 -31 -40 l-24
-40 -37 36 -37 36 -71 -68 c-39 -38 -71 -72 -71 -77 0 -10 -80 -87 -91 -87 -5
0 -8 -26 -8 -59 1 -32 -2 -64 -5 -70 -5 -8 11 -11 53 -11 62 0 72 -7 47 -33
-13 -12 -22 -81 -28 -197 -1 -19 2 -72 6 -117 6 -80 6 -83 -16 -87 -13 -2 -61
-11 -108 -20 -47 -9 -191 -22 -320 -28 -129 -6 -237 -14 -240 -18 -7 -9 -201
37 -277 66 -64 25 -103 31 -103 15 0 -11 6 -16 84 -86 32 -27 78 -70 104 -95
48 -46 112 -98 141 -114 27 -15 28 -23 16 -106 l-12 -80 599 0 c473 0 599 3
597 13 -3 25 1 38 11 32 6 -3 10 1 10 10 0 9 16 33 35 53 19 20 33 43 30 50
-3 8 0 10 7 6 8 -5 9 -2 5 9 -3 9 -3 16 1 15 28 -6 87 44 80 69 -3 11 57 73
71 73 6 0 15 -10 20 -23 5 -12 23 -46 40 -75 17 -29 31 -64 31 -78 0 -14 6
-32 13 -39 29 -33 33 -41 29 -53 -2 -6 3 -15 12 -18 12 -5 13 -10 5 -25 -8
-17 -6 -19 21 -19 23 0 30 4 30 20 0 12 -7 20 -16 20 -11 0 -15 6 -11 20 3 13
0 20 -9 20 -8 0 -14 10 -14 23 0 12 -6 31 -14 42 -7 11 -16 37 -20 58 -4 20
-10 37 -15 37 -11 0 -47 69 -62 118 -7 24 -18 42 -26 42 -9 0 -13 8 -11 23 3
22 -21 57 -39 57 -4 0 -16 18 -25 40 -13 32 -14 40 -3 40 7 0 17 -13 23 -28
14 -39 42 -38 43 2 1 24 3 26 6 9 3 -15 12 -23 25 -23 11 0 22 -8 25 -20 5
-17 14 -20 59 -20 l54 0 0 40 c0 22 -4 40 -9 40 -12 0 -71 59 -71 71 0 5 -7 9
-15 9 -11 0 -15 11 -15 40 0 22 -4 40 -10 40 -5 0 -10 18 -10 40 l0 40 -55 0
c-54 0 -54 0 -61 -34 -3 -19 -3 -39 1 -45 3 -7 0 -8 -9 -5 -9 3 -16 15 -16 26
0 10 -4 16 -10 13 -15 -9 -23 40 -15 103 3 31 18 134 32 227 42 279 42 318 1
328 -14 4 -19 11 -15 21 4 9 2 16 -3 16 -5 0 -20 17 -33 38 -25 39 -42 112
-26 112 5 0 9 8 9 18 0 13 2 14 9 4 8 -14 29 -20 69 -21 15 -1 22 -7 22 -20 0
-32 20 -35 21 -4 1 27 1 26 11 -7 l10 -35 19 49 c10 27 18 63 17 80 0 17 5 44
11 59 14 35 14 70 1 62 -5 -3 -10 -23 -10 -43 l-1 -37 -14 32 c-17 41 -42 53
-104 53 -34 0 -51 4 -51 13 0 11 -23 24 -72 41 -13 4 -18 16 -18 41 0 25 -4
35 -15 35 -12 0 -13 -4 -5 -19 5 -11 10 -27 10 -36 0 -29 -19 -5 -31 38 -6 23
-14 44 -18 47 -4 3 -23 28 -42 55 -18 28 -39 55 -45 60 -25 23 -164 226 -164
240 0 8 -4 15 -10 15 -5 0 -10 6 -10 13 0 8 -7 27 -14 43 -8 16 -19 54 -24 84
-6 30 -20 98 -32 150 -12 52 -36 198 -54 323 -19 125 -36 230 -39 233 -3 3
-13 -18 -22 -46z m551 -1386 c-8 -20 -26 -17 -26 4 0 9 -3 35 -6 57 l-5 40 21
-43 c12 -24 19 -50 16 -58z m24 -85 c0 -17 -4 -28 -10 -24 -5 3 -10 17 -10 31
0 13 5 24 10 24 6 0 10 -14 10 -31z m-190 -373 c0 -3 -4 -8 -10 -11 -5 -3 -10
-1 -10 4 0 6 5 11 10 11 6 0 10 -2 10 -4z m10 -313 c0 -9 -7 -25 -16 -35 -14
-14 -14 -20 -4 -33 11 -13 8 -15 -15 -15 -14 0 -25 3 -23 8 13 26 27 60 32 75
7 22 26 22 26 0z m291 -358 c11 8 12 -6 0 -23 -7 -11 -10 -10 -15 3 -3 9 -5
26 -5 38 2 22 2 21 6 -1 2 -12 9 -20 14 -17z m59 -55 c0 -5 -4 -10 -10 -10 -5
0 -10 5 -10 10 0 6 5 10 10 10 6 0 10 -4 10 -10z m100 -6 c0 -8 -4 -12 -10 -9
-5 3 -10 10 -10 16 0 5 5 9 10 9 6 0 10 -7 10 -16z"/>
<path d="M7968 2578 c-34 -12 -37 -46 -8 -73 13 -11 20 -14 20 -6 0 7 7 19 15
27 17 18 20 38 4 28 -8 -4 -9 0 -4 15 3 11 5 21 3 20 -2 0 -15 -5 -30 -11z"/>
<path d="M1976 2522 c-2 -4 -1 -41 5 -81 5 -40 7 -76 5 -80 -3 -4 -1 -13 4
-20 10 -17 44 -6 37 12 -3 8 -8 44 -12 80 -6 59 -5 67 9 67 12 0 15 -4 9 -15
-12 -21 -1 -108 15 -113 7 -2 12 5 12 18 0 12 5 18 10 15 6 -3 10 -15 10 -25
0 -27 21 -36 35 -16 11 15 14 14 23 -13 8 -23 16 -29 31 -26 12 2 21 -1 21 -6
0 -6 4 -8 9 -4 6 3 8 31 6 62 l-5 56 48 -8 c52 -8 50 -8 172 0 47 3 117 7 155
9 63 3 221 16 362 31 l51 5 13 -38 c7 -20 12 -40 11 -44 -1 -4 6 -26 15 -49
16 -40 15 -42 -3 -56 -13 -10 -34 -13 -65 -9 -26 2 -51 0 -57 -6 -5 -5 -32
-11 -58 -13 -27 -2 -73 -5 -103 -8 -37 -3 -50 -2 -40 5 10 6 4 7 -18 3 -17 -3
-46 -8 -63 -10 -17 -2 -35 -7 -41 -10 -18 -11 -89 -16 -89 -7 0 10 -121 7
-170 -3 -19 -4 -21 -3 -10 5 12 8 11 10 -7 10 -12 0 -25 -4 -28 -10 -3 -5 -10
-10 -16 -10 -5 0 -9 5 -9 10 0 13 -37 50 -49 50 -6 0 -16 8 -23 18 -14 19 -39
26 -80 25 -124 -6 -126 -7 -102 -42 9 -12 20 -18 27 -14 16 10 79 12 92 3 6
-4 25 -11 43 -15 18 -4 36 -13 39 -21 3 -8 14 -14 24 -14 10 0 19 -6 19 -14 0
-25 177 -28 410 -7 216 20 414 41 418 46 2 2 1 12 -3 22 -4 10 -7 29 -6 42 2
13 -2 33 -8 45 -6 12 -14 48 -18 80 -7 53 -11 60 -36 69 -21 7 -32 5 -45 -6
-12 -11 -37 -16 -77 -15 -33 0 -103 -5 -155 -11 -52 -6 -151 -13 -220 -17 -69
-3 -140 -9 -157 -14 -20 -5 -48 -4 -69 2 -21 5 -48 8 -61 5 -16 -3 -27 1 -30
10 -4 10 -14 12 -29 9 -14 -4 -24 -2 -24 4 0 5 -7 10 -15 10 -8 0 -15 -9 -15
-21 0 -11 -4 -17 -10 -14 -5 3 -10 16 -10 27 0 18 4 20 40 15 45 -6 56 13 17
30 -27 12 -154 16 -161 5z m94 -72 c0 -5 -2 -10 -4 -10 -3 0 -8 5 -11 10 -3 6
-1 10 4 10 6 0 11 -4 11 -10z m27 -42 c-3 -8 -6 -5 -6 6 -1 11 2 17 5 13 3 -3
4 -12 1 -19z"/>
<path d="M8126 2385 c-16 -36 -33 -65 -38 -65 -4 0 -8 -6 -8 -14 0 -8 -23 -34
-51 -58 l-50 -43 -5 -105 c-3 -70 -1 -98 5 -85 5 11 10 32 10 46 1 15 8 40 16
55 8 16 15 38 15 49 0 18 22 59 39 75 18 16 103 189 99 200 -2 6 -16 -19 -32
-55z"/>
<path d="M2802 2420 c-7 -11 -22 -20 -33 -20 -19 0 -21 -4 -15 -40 8 -49 -9
-54 -18 -4 -8 39 -24 49 -62 40 -22 -6 -25 -10 -19 -36 9 -39 -7 -39 -22 0
-10 26 -16 30 -47 30 -40 0 -41 -2 -25 -66 14 -55 29 -57 29 -4 0 40 13 53 24
24 3 -9 6 -24 6 -35 0 -10 5 -19 10 -19 6 0 10 7 10 17 0 15 2 15 19 -1 11
-10 24 -15 30 -12 6 4 31 7 56 8 44 1 45 2 45 32 0 17 4 37 9 45 7 11 13 6 24
-21 15 -35 15 -35 81 -37 38 -1 66 3 66 9 0 23 -33 89 -47 94 -16 7 -63 -18
-63 -32 0 -5 4 -12 9 -17 5 -6 5 -19 1 -30 -7 -19 -7 -19 -19 3 -7 13 -9 32
-6 42 4 12 2 20 -4 20 -6 0 -11 7 -11 15 0 21 -13 19 -28 -5z m113 -30 c3 -5
-1 -10 -10 -10 -9 0 -13 5 -10 10 3 6 8 10 10 10 2 0 7 -4 10 -10z m-215 -24
c0 -3 -4 -8 -10 -11 -5 -3 -10 -1 -10 4 0 6 5 11 10 11 6 0 10 -2 10 -4z m235
-16 c3 -5 -1 -10 -10 -10 -9 0 -13 5 -10 10 3 6 8 10 10 10 2 0 7 -4 10 -10z
m-233 -32 c-7 -7 -12 -8 -12 -2 0 14 12 26 19 19 2 -3 -1 -11 -7 -17z"/>
<path d="M2413 2392 c5 -24 2 -31 -13 -35 -24 -6 -30 0 -30 30 0 13 -6 23 -12
23 -10 0 -12 -17 -8 -65 5 -64 22 -89 28 -41 3 25 26 41 43 30 5 -3 9 -19 9
-37 0 -23 3 -28 11 -20 16 16 -1 135 -20 141 -11 4 -13 -2 -8 -26z"/>
<path d="M2221 2381 c-18 -12 3 -77 30 -92 29 -15 37 -4 29 39 -11 61 -26 74
-59 53z"/>
<path d="M2472 2368 c-20 -20 -14 -31 14 -24 l26 7 -26 -23 c-36 -31 -22 -53
28 -44 40 8 40 7 25 59 -8 29 -15 37 -32 37 -13 0 -28 -5 -35 -12z"/>
<path d="M1520 1986 c0 -32 20 -66 39 -66 19 0 19 1 3 40 -17 39 -42 54 -42
26z"/>
<path d="M6268 1886 c-31 -7 -63 -17 -71 -24 -14 -12 -35 -180 -30 -241 1 -13
-3 -33 -9 -45 -7 -12 -15 -41 -19 -66 -4 -25 -16 -98 -28 -162 -11 -65 -25
-167 -31 -226 -5 -60 -17 -131 -25 -157 -8 -27 -17 -97 -21 -155 -6 -101 -5
-108 17 -143 23 -35 39 -47 39 -28 0 11 160 21 565 36 164 6 397 -5 494 -24
30 -6 57 -8 59 -6 3 2 8 37 13 77 4 40 13 91 19 113 6 22 17 85 25 140 8 55
21 143 28 195 8 52 20 149 27 215 6 66 19 149 27 185 8 36 19 98 23 138 5 50
14 83 29 102 l21 29 -22 12 c-14 8 -87 13 -193 16 -94 1 -216 6 -271 9 -54 3
-109 5 -121 5 -63 -3 -230 6 -249 13 -7 3 -16 1 -19 -5 -4 -5 -27 -7 -53 -4
-98 12 -169 12 -224 1z m168 -32 c17 -2 95 -6 173 -8 79 -2 146 -8 150 -13 12
-18 41 -23 41 -7 0 11 6 13 22 8 12 -4 137 -7 276 -7 l254 0 -7 -31 c-3 -17
-11 -60 -16 -95 -5 -35 -12 -67 -15 -72 -3 -5 -7 -26 -9 -47 -2 -20 -6 -48 -9
-62 -12 -54 -16 -77 -20 -125 -17 -184 -33 -291 -45 -310 -3 -5 -6 -25 -6 -44
0 -25 -5 -35 -18 -37 -13 -2 -20 9 -28 41 -13 52 -33 72 -74 77 -27 3 -30 7
-33 44 -2 22 3 53 9 70 7 16 14 36 15 44 2 8 7 40 12 70 8 44 7 58 -4 71 -8 9
-11 19 -8 22 4 4 12 -1 19 -10 17 -23 36 -8 26 20 -5 13 -9 39 -9 59 0 79 -48
169 -111 211 -73 48 -247 92 -301 76 -8 -2 -14 2 -12 9 1 6 -5 12 -13 12 -8 0
-14 -5 -12 -11 1 -7 -34 -24 -78 -38 -44 -15 -93 -36 -110 -46 -53 -34 -131
-123 -155 -177 -12 -29 -27 -63 -33 -76 -8 -16 -7 -26 1 -34 7 -7 12 -23 12
-35 0 -13 6 -23 13 -22 41 5 44 0 46 -71 1 -48 -3 -77 -13 -91 -8 -12 -12 -28
-9 -35 3 -8 -1 -14 -10 -14 -18 0 -30 27 -14 33 13 4 13 140 0 160 -7 10 -15
-48 -26 -192 -1 -19 -8 -36 -15 -39 -7 -2 -9 -8 -6 -14 4 -6 -5 -9 -22 -8 -51
4 -65 0 -71 -17 -4 -10 -13 -22 -20 -28 -7 -5 -14 -32 -15 -59 -1 -36 -7 -54
-25 -72 -30 -30 -34 -118 -5 -133 58 -31 568 -44 800 -22 57 6 106 10 110 9 7
-2 59 8 94 18 9 3 20 14 23 25 12 37 26 20 19 -23 -4 -24 -6 -60 -5 -82 1 -33
-1 -37 -16 -31 -34 15 -309 26 -473 21 -354 -13 -448 -18 -518 -25 -55 -6 -75
-4 -84 6 -14 17 -4 114 27 258 13 61 28 153 34 205 15 125 39 293 51 355 6 28
17 102 25 165 22 173 20 166 68 177 40 9 81 8 153 -3z m446 -125 c52 -13 129
-68 152 -108 12 -21 22 -62 25 -106 6 -70 6 -71 -16 -67 -20 4 -23 11 -23 51
-1 107 -68 177 -202 211 -49 13 -133 6 -154 -11 -7 -5 -16 -9 -20 -7 -16 4
-83 -26 -88 -39 -8 -19 10 -16 64 11 27 13 73 27 102 31 134 17 279 -85 276
-192 -1 -47 14 -73 44 -73 33 0 49 -25 43 -67 -3 -21 -9 -39 -14 -41 -6 -2 -7
-10 -4 -18 3 -8 1 -14 -5 -14 -5 0 -13 -16 -16 -35 -4 -19 -10 -35 -14 -35 -4
0 -7 -17 -7 -37 0 -34 -3 -38 -27 -41 -38 -5 -35 -23 3 -20 21 2 34 -3 41 -16
7 -13 17 -16 34 -12 29 8 64 -9 64 -29 0 -8 5 -15 10 -15 6 0 10 -18 10 -40 0
-40 0 -40 -37 -40 -21 0 -48 -3 -60 -6 -17 -5 -22 0 -28 25 -4 17 -11 31 -16
31 -5 0 -9 5 -9 10 0 6 7 10 15 10 12 0 13 4 3 25 -12 27 -31 35 -22 10 6 -16
-4 -19 -30 -9 -9 4 -16 18 -16 34 0 16 -4 32 -10 35 -22 13 -10 35 19 35 33 0
49 15 27 23 -8 3 -24 3 -37 0 -21 -6 -22 -4 -16 38 3 24 11 45 16 47 6 2 11
15 11 28 0 13 5 24 11 24 5 0 9 8 8 18 -2 9 2 26 8 38 15 26 6 64 -14 64 -11
0 -14 -7 -11 -25 3 -14 1 -28 -3 -31 -5 -3 -9 -15 -9 -27 0 -25 -30 -107 -39
-107 -4 0 -8 -26 -9 -57 -1 -62 11 -96 59 -168 31 -47 36 -65 17 -66 -7 0 -24
-2 -38 -4 -14 -2 -81 -7 -150 -11 l-126 -7 3 62 c1 33 -2 61 -7 61 -5 0 -14 9
-20 20 -8 15 -7 25 5 43 15 23 36 105 36 140 0 9 7 17 15 17 11 0 14 -8 9 -32
-3 -18 -9 -67 -13 -109 l-8 -77 48 -5 c57 -7 88 -22 88 -43 0 -8 -4 -13 -9 -9
-5 3 -35 7 -66 10 -53 5 -56 4 -53 -17 2 -15 11 -22 28 -23 14 -1 54 -6 89
-10 l64 -8 -6 39 c-7 45 -26 61 -76 69 -66 11 -86 37 -34 43 40 5 53 20 53 58
0 26 5 37 23 44 48 20 64 44 72 108 4 34 11 65 16 68 15 9 10 54 -6 60 -9 4
-15 19 -15 39 0 45 -16 85 -34 85 -12 0 -12 -4 1 -30 13 -27 13 -33 0 -53 -13
-20 -12 -24 9 -40 28 -21 31 -52 7 -62 -44 -18 -72 -16 -83 5 -6 11 -8 24 -5
29 6 10 -49 41 -72 41 -16 0 -17 22 -1 38 22 22 -2 25 -25 3 -14 -12 -31 -19
-39 -16 -9 4 -19 2 -23 -4 -3 -6 2 -12 12 -12 10 -1 23 -2 28 -4 6 -1 16 -3
23 -3 6 -1 12 -15 12 -32 0 -18 7 -33 19 -39 16 -9 17 -7 13 14 -2 14 0 25 6
25 17 0 36 -31 37 -58 0 -23 4 -27 26 -24 23 3 26 0 22 -22 -4 -18 -13 -26
-39 -31 -19 -3 -34 -10 -34 -15 0 -6 -5 -10 -11 -10 -6 0 -9 7 -5 15 5 14 -11
21 -38 16 -12 -3 -46 30 -46 44 0 22 -24 34 -37 20 -7 -8 -9 -15 -5 -17 12 -5
54 -69 49 -75 -3 -3 -24 5 -46 18 -42 23 -62 56 -42 68 6 4 -1 14 -19 25 -36
20 -36 25 -9 55 28 30 20 35 -12 7 -23 -20 -27 -32 -33 -113 l-7 -91 32 -25
c32 -25 32 -26 15 -51 -21 -33 -16 -42 29 -50 33 -7 39 -14 36 -43 -1 -6 8
-14 19 -18 35 -11 20 -40 -20 -41 -19 -1 -39 -2 -45 -4 -5 -1 -18 -2 -27 -1
-10 1 -18 -4 -18 -13 0 -20 -5 -20 -36 0 -13 9 -26 15 -27 13 -26 -46 -26 -47
-9 -54 9 -3 18 -1 20 4 4 13 107 13 137 1 18 -7 17 -8 -9 -15 -24 -7 -163 -1
-221 9 -11 2 -37 4 -57 5 -27 1 -38 6 -38 16 0 18 -16 20 -23 2 -3 -8 -20 -11
-51 -9 -44 4 -46 5 -46 36 0 42 52 90 92 84 15 -3 29 0 31 6 3 8 11 7 26 -2
12 -7 31 -10 42 -7 25 8 24 -11 -2 -25 -15 -8 -24 -8 -33 0 -10 8 -15 7 -20
-5 -3 -9 0 -15 10 -15 8 0 13 -4 9 -9 -3 -6 -18 -6 -38 0 -17 5 -33 9 -34 9
-1 0 0 -7 3 -15 4 -8 12 -15 20 -15 7 0 17 -7 22 -16 8 -15 11 -15 30 4 11 11
18 23 15 26 -3 3 2 9 13 13 22 8 63 53 64 69 0 6 7 17 15 24 8 7 15 23 15 36
0 12 5 26 10 29 6 4 8 14 6 23 -3 10 -1 24 4 32 6 10 4 20 -6 31 -11 13 -12
22 -3 48 9 24 9 39 0 57 -9 20 -8 26 3 30 11 4 12 13 6 34 -12 41 7 94 47 135
20 20 29 36 22 40 -6 4 -11 5 -13 4 -1 -2 -19 -25 -40 -52 -27 -33 -40 -60
-43 -91 -5 -43 -6 -43 -24 -25 -35 35 -22 75 52 155 19 22 49 46 65 55 25 15
131 49 189 63 25 6 109 -2 157 -15z m-537 -269 c3 -5 1 -10 -4 -10 -6 0 -11 5
-11 10 0 6 2 10 4 10 3 0 8 -4 11 -10z m55 0 c0 -5 -4 -10 -10 -10 -5 0 -10 5
-10 10 0 6 5 10 10 10 6 0 10 -4 10 -10z m38 -27 c-10 -2 -26 -2 -35 0 -10 3
-2 5 17 5 19 0 27 -2 18 -5z m-38 -22 c0 -16 -13 -20 -31 -10 -27 14 -23 27 6
21 14 -2 25 -8 25 -11z m35 -49 c-3 -8 -5 -21 -5 -30 -1 -13 -29 51 -30 66 0
1 9 -3 20 -10 11 -7 18 -19 15 -26z m112 -74 c-3 -8 -6 -5 -6 6 -1 11 2 17 5
13 3 -3 4 -12 1 -19z m73 -19 c0 -10 -21 -12 -44 -3 -27 10 -18 21 14 16 17
-2 30 -8 30 -13z m-191 -36 c0 -25 -1 -26 -9 -8 -12 27 -12 35 0 35 6 0 10
-12 9 -27z m-9 -58 c0 -8 -4 -15 -10 -15 -5 0 -10 7 -10 15 0 8 5 15 10 15 6
0 10 -7 10 -15z m-80 -36 c0 -11 -4 -17 -10 -14 -5 3 -10 13 -10 21 0 8 5 14
10 14 6 0 10 -9 10 -21z m873 -199 c3 -10 -1 -24 -9 -31 -11 -9 -14 -6 -14 20
0 34 15 42 23 11z m-311 -55 c3 -13 2 -28 -1 -33 -18 -28 -98 -24 -87 4 3 8 1
14 -4 14 -22 0 5 31 34 38 40 11 53 6 58 -23z m142 3 c-7 -11 -54 -10 -54 0 0
15 44 31 52 19 4 -6 4 -15 2 -19z m-746 5 c2 -8 -6 -13 -22 -13 -17 0 -26 5
-26 16 0 19 41 16 48 -3z m156 7 c30 -11 33 -26 9 -52 -23 -25 -89 -25 -103 1
-18 35 -1 53 57 60 6 0 23 -3 37 -9z m178 -45 c-5 -29 -43 -49 -73 -40 -12 4
-17 15 -17 36 1 24 7 31 32 38 43 11 65 -2 58 -34z m112 36 c9 -14 -15 -71
-30 -71 -18 0 -19 66 -1 73 19 8 25 8 31 -2z m456 -15 c0 -3 -4 -8 -10 -11 -5
-3 -10 -1 -10 4 0 6 5 11 10 11 6 0 10 -2 10 -4z"/>
<path d="M7047 753 c-10 -9 25 -32 51 -33 24 0 28 10 10 28 -13 13 -50 16 -61
5z"/>
<path d="M6690 1580 c-13 -8 -13 -10 1 -10 21 0 76 -50 80 -73 2 -10 8 -17 14
-15 5 2 8 10 6 18 -10 36 -5 55 17 66 23 11 22 12 -17 16 -22 2 -43 -1 -46 -7
-3 -6 -7 -5 -11 3 -7 14 -23 15 -44 2z"/>
<path d="M6602 1535 c-7 -14 -12 -31 -11 -38 1 -17 87 -78 94 -67 3 6 -5 15
-18 21 -29 13 -60 69 -51 92 10 27 -1 20 -14 -8z"/>
<path d="M6818 1483 c7 -3 16 -2 19 1 4 3 -2 6 -13 5 -11 0 -14 -3 -6 -6z"/>
<path d="M6828 1453 c7 -3 16 -2 19 1 4 3 -2 6 -13 5 -11 0 -14 -3 -6 -6z"/>
<path d="M7025 1330 c3 -5 11 -10 16 -10 6 0 7 5 4 10 -3 6 -11 10 -16 10 -6
0 -7 -4 -4 -10z"/>
<path d="M7006 1293 c5 -5 12 -12 16 -18 4 -6 8 -2 8 8 0 9 -7 17 -17 17 -9 0
-12 -3 -7 -7z"/>
<path d="M6985 1240 c3 -5 16 -10 28 -9 21 0 21 1 2 9 -28 12 -37 12 -30 0z"/>
<path d="M6580 1080 c0 -5 5 -10 10 -10 6 0 10 5 10 10 0 6 -4 10 -10 10 -5 0
-10 -4 -10 -10z"/>
<path d="M6491 1061 c-7 -5 -12 -14 -10 -20 3 -6 9 -7 18 -2 7 5 12 14 10 20
-3 6 -9 7 -18 2z"/>
<path d="M7047 1033 c-13 -12 -7 -23 13 -23 11 0 20 7 20 15 0 15 -21 21 -33
8z"/>
<path d="M6230 1010 c0 -5 5 -10 10 -10 6 0 10 5 10 10 0 6 -4 10 -10 10 -5 0
-10 -4 -10 -10z"/>
<path d="M6397 883 c-15 -15 -6 -33 17 -33 23 0 41 22 29 34 -8 8 -38 8 -46
-1z"/>
<path d="M1761 1864 c0 -11 3 -14 6 -6 3 7 2 16 -1 19 -3 4 -6 -2 -5 -13z"/>
<path d="M3880 1655 c0 -22 -6 -38 -15 -41 -12 -5 -15 -22 -14 -78 1 -39 4
-60 6 -47 3 13 11 31 19 38 10 10 14 38 14 89 0 41 -2 74 -5 74 -3 0 -5 -16
-5 -35z"/>
<path d="M1226 1665 c4 -8 10 -12 15 -9 14 8 10 24 -6 24 -9 0 -12 -6 -9 -15z"/>
<path d="M1280 1630 c0 -32 14 -40 24 -14 9 24 7 31 -9 38 -11 4 -15 -2 -15
-24z"/>
<path d="M2000 1575 c0 -11 11 -15 40 -15 29 0 40 4 40 15 0 11 -11 15 -40 15
-29 0 -40 -4 -40 -15z"/>
<path d="M1352 1483 c-1 -31 -6 -43 -17 -43 -16 0 -19 -32 -6 -65 7 -17 10
-13 20 23 7 24 10 62 8 85 l-4 42 -1 -42z"/>
<path d="M2110 1510 c0 -5 5 -10 10 -10 6 0 10 5 10 10 0 6 -4 10 -10 10 -5 0
-10 -4 -10 -10z"/>
<path d="M7932 1483 c-6 -21 -14 -60 -17 -88 -4 -27 -24 -103 -46 -168 -21
-65 -39 -128 -38 -140 0 -21 1 -21 9 -2 5 11 9 32 9 48 1 15 6 27 11 27 6 0
10 9 10 19 0 11 9 40 20 66 27 63 71 275 57 275 -2 0 -9 -17 -15 -37z"/>
<path d="M1543 1283 c15 -2 37 -2 50 0 12 2 0 4 -28 4 -27 0 -38 -2 -22 -4z"/>
<path d="M7693 697 c-45 -108 -49 -131 -33 -186 8 -30 6 -35 -17 -55 -88 -72
-96 -91 -74 -175 6 -20 17 -74 26 -121 9 -47 21 -102 26 -122 l10 -38 624 0
625 0 0 26 c0 65 -51 244 -74 258 -15 10 -256 -10 -485 -40 -58 -8 -198 -17
-309 -21 -227 -7 -222 -8 -222 60 0 30 -4 37 -19 37 -17 0 -19 5 -14 36 4 21
0 45 -8 61 -11 20 -11 27 -2 30 24 8 26 67 3 111 -24 46 -24 50 -16 165 3 42
5 77 3 77 -1 0 -21 -47 -44 -103z"/>
<path d="M1340 545 c0 -8 -9 -15 -20 -15 -13 0 -20 -7 -20 -20 0 -21 15 -27
25 -10 4 6 11 5 19 -3 10 -9 11 -14 2 -19 -8 -6 -8 -8 1 -8 17 0 44 55 37 74
-8 20 -44 21 -44 1z"/>
<path d="M2495 320 c-3 -5 -1 -10 4 -10 6 0 11 5 11 10 0 6 -2 10 -4 10 -3 0
-8 -4 -11 -10z"/>
<path d="M5761 285 c-1 -13 19 -35 31 -35 4 0 8 5 8 10 0 6 -6 10 -14 10 -8 0
-17 6 -19 13 -3 6 -6 7 -6 2z"/>
<path d="M9260 280 c-13 -8 -12 -10 3 -10 9 0 17 -7 17 -15 0 -17 45 -21 55
-4 9 14 2 20 -26 22 -13 0 -26 4 -29 8 -3 5 -12 4 -20 -1z"/>
<path d="M2 152 c2 -10 32 -28 78 -45 41 -16 77 -33 80 -38 3 -4 22 -15 41
-23 20 -8 41 -22 49 -30 14 -18 50 -22 50 -6 0 6 -12 16 -27 23 -16 6 -37 20
-47 29 -11 10 -23 18 -28 18 -4 0 -27 14 -50 30 -24 17 -67 37 -96 45 -49 12
-53 12 -50 -3z"/>
<path d="M5531 147 c-17 -17 -13 -34 12 -54 13 -10 26 -26 30 -36 3 -9 18 -22
32 -29 14 -6 25 -15 25 -20 0 -4 25 -8 55 -8 41 0 55 4 55 15 0 13 -45 65 -56
65 -3 0 -13 9 -22 20 -23 28 -117 61 -131 47z"/>
<path d="M9040 136 c0 -25 1 -26 69 -24 66 1 96 -6 87 -20 -2 -4 30 -8 71 -9
57 -1 75 2 80 13 14 38 -28 50 -209 60 l-98 6 0 -26z"/>
<path d="M8886 66 c9 -31 25 -48 40 -42 7 3 18 -2 24 -10 7 -8 23 -14 36 -14
21 0 24 5 24 40 0 44 5 41 -88 45 -39 2 -42 0 -36 -19z"/>
<path d="M9040 35 c0 -22 4 -25 40 -25 36 0 40 3 40 25 0 23 -4 25 -40 25 -36
0 -40 -2 -40 -25z"/>
</g>
</svg>
